<svg xmlns="http://www.w3.org/2000/svg" viewBox="0 0 512 512" width="512" height="512">
  <defs>
    <linearGradient id="bg" x1="0" y1="0" x2="1" y2="1">
      <stop offset="0%" stop-color="#0a0f1a"/>
      <stop offset="100%" stop-color="#030712"/>
    </linearGradient>
    <linearGradient id="accent" x1="0" y1="0" x2="1" y2="1">
      <stop offset="0%" stop-color="#a3e635"/>
      <stop offset="100%" stop-color="#84cc16"/>
    </linearGradient>
  </defs>
  <!-- Maskable: full bleed background, content in safe zone (center 80%) -->
  <rect width="512" height="512" fill="url(#bg)"/>
  <!-- D letterform — inset for maskable safe zone -->
  <path d="M172 148h70c64 0 114 22 140 62 16 26 24 56 24 90s-8 64-24 90c-26 40-76 62-140 62h-70V148zm50 46v208h24c44 0 76-14 94-44 12-20 18-46 18-76s-6-56-18-76c-18-30-50-44-94-44h-24z" fill="url(#accent)"/>
  <circle cx="376" cy="168" r="16" fill="#84cc16" opacity="0.6"/>
</svg>
