<svg xmlns="http://www.w3.org/2000/svg" viewBox="0 0 512 512" width="512" height="512">
  <defs>
    <linearGradient id="bg" x1="0" y1="0" x2="1" y2="1">
      <stop offset="0%" stop-color="#0a0f1a"/>
      <stop offset="100%" stop-color="#030712"/>
    </linearGradient>
    <linearGradient id="accent" x1="0" y1="0" x2="1" y2="1">
      <stop offset="0%" stop-color="#a3e635"/>
      <stop offset="100%" stop-color="#84cc16"/>
    </linearGradient>
  </defs>
  <rect width="512" height="512" rx="96" fill="url(#bg)"/>
  <!-- D letterform -->
  <path d="M152 128h80c72 0 128 24 156 68 18 28 26 62 26 100s-8 72-26 100c-28 44-84 68-156 68h-80V128zm56 52v232h28c48 0 84-16 104-48 14-22 20-50 20-84s-6-62-20-84c-20-32-56-48-104-48h-28z" fill="url(#accent)"/>
  <!-- Accent dot -->
  <circle cx="392" cy="152" r="20" fill="#84cc16" opacity="0.6"/>
</svg>
