<?xml version="1.0" encoding="utf-8"?>
<!-- Generator: Adobe Illustrator 27.5.0, SVG Export Plug-In . SVG Version: 6.00 Build 0)  -->
<svg version="1.1" id="PRINT" xmlns="http://www.w3.org/2000/svg" xmlns:xlink="http://www.w3.org/1999/xlink" x="0px" y="0px"
	 viewBox="0 0 595.28 419.53" style="enable-background:new 0 0 595.28 419.53;" xml:space="preserve">
<g>
	<rect x="-11.25" y="-11.25" style="fill:#FFFFFF;" width="617.917" height="442.125"/>
	<polygon style="fill:#4C0C1E;" points="211.605,65.252 155.182,78.775 174.767,86.236 168.705,103.49 218.134,92.298 	"/>
	<polygon style="fill:#330614;" points="218.134,92.298 195.285,88.412 215.102,81.107 	"/>
	<polygon style="fill:#4C0C1E;" points="380.641,65.252 437.063,78.775 417.478,86.236 423.54,103.49 374.112,92.298 	"/>
	<polygon style="fill:#330614;" points="374.112,92.298 396.961,88.412 377.143,81.107 	"/>
	<g>
		<g>
			<path style="fill:#67192D;" d="M14.129,12.886c-0.39,2.24-0.487,4.675-0.39,7.013c0.097,1.461,0.682,3.993,2.24,1.948
				c0.877-1.169,0.779-2.922,0.779-4.188c1.266,0.292,5.941,5.552,6.915,3.604c0.877-1.656-3.604-4.967-4.675-5.552
				c1.364-0.195,3.02,0.292,4.188-0.682c1.948-1.656,0-2.727-1.753-2.922c-2.338-0.195-4.87,0-7.013,0.487"/>
		</g>
		<g>
			<path style="fill:#67192D;" d="M22.408,16.685c2.922,2.922,7.89,6.331,12.37,5.747c2.436-0.39,4.773-2.825,5.26-5.26
				c0.584-3.117-2.045-4.481-3.702-1.559c-1.461,2.435-2.922,3.409-5.941,3.019C27.863,18.341,24.843,17.659,22.408,16.685"/>
		</g>
		<g>
			<path style="fill:#67192D;" d="M25.817,12.107c2.532,5.26,7.208,3.896,8.961,0.39C31.954,12.107,28.642,12.107,25.817,12.107"/>
		</g>
		<g>
			<g>
				<path style="fill:#67192D;" d="M25.209,15.958c3.956,2.126,8.911,2.814,11.083-1.977c0.33-0.728-0.747-1.364-1.079-0.631
					c-1.884,4.156-6.013,3.334-9.373,1.529C25.13,14.498,24.499,15.577,25.209,15.958L25.209,15.958z"/>
			</g>
		</g>
		<g>
			<path style="fill:#67192D;" d="M24.259,22.529c5.844,7.11,19.189,15.974,28.15,8.376c6.137-5.26,7.208-21.526-4.286-20.163
				c-3.214,0.39-6.137,2.63-6.039,6.137c0.097,2.825,1.948,5.455,4.968,5.649c0.974,0.097,2.63,0,3.02-1.267
				c0.779-1.851-1.559-1.753-2.63-2.337c-3.507-1.753,0-4.578,2.727-3.897c6.526,1.559,3.702,11.105-0.487,13.734
				c-3.604,2.435-7.792,1.851-11.688,0.39c-4.383-1.656-9.741-3.312-13.442-7.111"/>
		</g>
		<g>
			<g>
				<path style="fill:#67192D;" d="M49.51,17.906c2.58-1.158,1.799,3.612,1.531,4.881c-0.759,3.588-4.322,5.238-7.69,5.156
					c-0.807-0.02-0.805,1.23,0,1.25c4.573,0.112,8.367-2.526,9.091-7.139c0.403-2.57,0.063-6.853-3.562-5.227
					C48.145,17.157,48.781,18.233,49.51,17.906L49.51,17.906z"/>
			</g>
		</g>
		<g>
			<path style="fill:#67192D;" d="M26.207,21.847c3.799,2.338,6.916,4.383,11.202,5.747c1.558,0.584,6.234,0.682,2.922-1.364
				c-1.754-1.071-4.091-1.753-6.039-2.338c-2.728-0.682-5.455-1.168-8.182-2.045"/>
		</g>
		<g>
			<path style="fill:#67192D;" d="M62.247,22.042c2.241,2.435,4.676-0.974,4.091-3.312c-0.584-2.63-3.604-3.604-5.844-2.825
				c-4.383,1.363-3.507,7.305-1.753,10.325c3.214,5.26,8.377,3.409,11.981-0.292c3.994-4.188,7.598-8.767,13.247-10.715
				c4.188-1.461,9.253-1.948,10.812,3.02c0.487,1.753,0.779,3.604-0.39,5.163c-0.682,1.071-5.65,3.994-5.455,0.584
				c0.098-1.656,2.825-0.779,3.312-2.728c0.39-1.558-0.779-2.143-2.24-2.045c-2.435,0.098-4.286,1.948-4.676,4.188
				c-0.682,5.26,5.942,7.987,9.741,4.968c3.604-2.63,4.773-9.156,2.533-12.857c-2.533-4.189-8.085-6.137-12.76-5.357
				c-5.26,0.877-8.864,3.896-12.078,7.89c-1.753,2.241-2.922,4.871-5.26,6.624c-2.533,1.753-6.429,2.825-7.598-1.168
				c-0.39-1.461-0.292-3.799,1.071-4.871c0.974-0.682,3.02-0.974,3.117,0.779c0.097,1.559-2.728,0.974-2.046,2.533"/>
		</g>
		<g>
			<path style="fill:#67192D;" d="M134.811,22.042c-2.24,2.435-4.675-0.974-4.091-3.312c0.584-2.63,3.604-3.604,5.844-2.825
				c4.383,1.363,3.506,7.305,1.753,10.325c-3.214,5.26-8.376,3.409-11.98-0.292c-3.994-4.188-7.598-8.767-13.247-10.715
				c-4.188-1.461-9.253-1.948-10.812,3.02c-0.487,1.753-0.779,3.604,0.39,5.163c0.682,1.071,5.649,3.994,5.455,0.584
				c-0.098-1.656-2.825-0.779-3.312-2.728c-0.39-1.558,0.779-2.143,2.241-2.045c2.435,0.098,4.286,1.948,4.675,4.188
				c0.682,5.26-5.942,7.987-9.741,4.968c-3.604-2.63-4.773-9.156-2.532-12.857c2.532-4.189,8.084-6.137,12.76-5.357
				c5.26,0.877,8.864,3.896,12.078,7.89c1.753,2.241,2.922,4.871,5.26,6.624c2.532,1.753,6.429,2.825,7.598-1.168
				c0.39-1.461,0.292-3.799-1.072-4.871c-0.974-0.682-3.02-0.974-3.117,0.779c-0.098,1.559,2.727,0.974,2.045,2.533"/>
		</g>
		<g>
			<g>
				<path style="fill:#67192D;" d="M131.384,29.415c6.805,1.4,14.274-1.341,19.955-5.079c0.721-0.475,2.341-1.662,1.704-2.748
					c-1.078-1.839-3.755,0.202-4.905,0.68c0.203,0.348,0.405,0.696,0.608,1.044c1.014-1.041,5.025-4.472,3.994-6.234
					c-1.318-2.251-6.817,3.852-7.507,4.62c0.348,0.092,0.696,0.184,1.045,0.276c-0.289-0.862-0.517-3.762-2.105-3.325
					c-0.66,0.182-1.089,1.265-1.293,1.777c-1.52,3.844-3.988,5.003-7.793,6.03c-0.778,0.209-0.447,1.415,0.332,1.205
					c2.368-0.639,4.443-1.305,6.374-2.849c0.898-0.718,1.39-1.859,1.822-2.875c1.131-2.658,1.049-0.85,1.457,0.368
					c0.141,0.42,0.712,0.646,1.044,0.276c0.678-0.754,1.39-1.466,2.123-2.167c0.688-0.659,2.847-1.596,3.188-2.275
					c-0.795,1.588-2.327,3.019-3.564,4.289c-0.402,0.413-0.001,1.298,0.608,1.045c0.272-0.112,0.544-0.225,0.816-0.34
					c0.544-0.619,1.018-0.578,1.422,0.124c-1.151,0.87-2.539,1.451-3.824,2.076c-4.724,2.298-9.895,3.961-15.168,2.876
					C130.93,28.047,130.595,29.252,131.384,29.415L131.384,29.415z"/>
			</g>
		</g>
		<g>
			<g>
				<path style="fill:#67192D;" d="M136.469,27.781c3.799-0.043,7.125-1.49,10.105-3.787c0.629-0.484,0.008-1.571-0.631-1.079
					c-2.804,2.16-5.886,3.575-9.474,3.616C135.664,26.54,135.663,27.79,136.469,27.781L136.469,27.781z"/>
			</g>
		</g>
		<g>
			<path style="fill:#67192D;" d="M17.84,21.42c2.922,2.922,6.331,7.89,5.747,12.37c-0.39,2.436-2.825,4.773-5.26,5.26
				c-3.117,0.584-4.48-2.045-1.559-3.702c2.435-1.461,3.409-2.922,3.019-5.941C19.496,26.875,18.814,23.855,17.84,21.42"/>
		</g>
		<g>
			<path style="fill:#67192D;" d="M13.262,24.829c5.26,2.532,3.896,7.208,0.39,8.961C13.262,30.965,13.262,27.654,13.262,24.829"/>
		</g>
		<g>
			<g>
				<path style="fill:#67192D;" d="M16.034,24.852c1.805,3.36,2.627,7.489-1.529,9.373c-0.733,0.332-0.097,1.409,0.631,1.079
					c4.792-2.172,4.103-7.126,1.977-11.082C16.732,23.511,15.653,24.142,16.034,24.852L16.034,24.852z"/>
			</g>
		</g>
		<g>
			<path style="fill:#67192D;" d="M23.685,23.271c7.11,5.844,15.974,19.189,8.376,28.15c-5.26,6.137-21.526,7.208-20.163-4.286
				c0.39-3.214,2.63-6.137,6.137-6.039c2.825,0.097,5.455,1.948,5.649,4.968c0.097,0.974,0,2.63-1.267,3.02
				c-1.851,0.779-1.753-1.559-2.337-2.63c-1.753-3.507-4.578,0-3.897,2.727c1.559,6.526,11.105,3.702,13.734-0.487
				c2.435-3.604,1.85-7.792,0.39-11.688c-1.656-4.383-3.312-9.741-7.111-13.442"/>
		</g>
		<g>
			<g>
				<path style="fill:#67192D;" d="M17.982,47.891c-1.603,3.571,2.502,3.917,5.061,3.585c4.696-0.61,7.419-4.502,7.306-9.113
					c-0.02-0.805-1.27-0.807-1.25,0c0.081,3.284-1.432,6.673-4.847,7.616c-1.278,0.353-6.369,1.169-5.191-1.456
					C19.389,47.792,18.312,47.156,17.982,47.891L17.982,47.891z"/>
			</g>
		</g>
		<g>
			<path style="fill:#67192D;" d="M23.002,25.219c2.338,3.799,4.383,6.916,5.747,11.202c0.584,1.558,0.682,6.234-1.364,2.922
				c-1.071-1.753-1.753-4.091-2.338-6.039c-0.682-2.727-1.168-5.455-2.045-8.182"/>
		</g>
		<g>
			<path style="fill:#67192D;" d="M23.197,61.258c2.435,2.241-0.974,4.676-3.312,4.091c-2.63-0.585-3.604-3.604-2.825-5.844
				c1.363-4.383,7.305-3.507,10.325-1.753c5.26,3.214,3.409,8.377-0.292,11.981c-4.188,3.994-8.767,7.598-10.715,13.247
				c-1.461,4.188-1.948,9.253,3.019,10.812c1.753,0.487,3.604,0.779,5.163-0.39c1.071-0.682,3.994-5.65,0.584-5.455
				c-1.656,0.098-0.779,2.825-2.728,3.312c-1.558,0.39-2.143-0.779-2.045-2.24c0.098-2.435,1.948-4.286,4.188-4.676
				c5.26-0.682,7.987,5.942,4.968,9.741c-2.63,3.604-9.156,4.773-12.857,2.533c-4.189-2.533-6.137-8.085-5.357-12.76
				c0.876-5.26,3.896-8.864,7.89-12.078c2.241-1.753,4.871-2.922,6.624-5.26c1.753-2.533,2.825-6.429-1.168-7.598
				c-1.461-0.39-3.799-0.292-4.871,1.071c-0.682,0.974-0.974,3.02,0.779,3.117c1.559,0.097,0.974-2.728,2.533-2.046"/>
		</g>
		<g>
			<path style="fill:#67192D;" d="M23.197,133.822c2.435-2.24-0.974-4.675-3.312-4.091c-2.63,0.584-3.604,3.604-2.825,5.844
				c1.363,4.383,7.305,3.506,10.325,1.753c5.26-3.214,3.409-8.376-0.292-11.98c-4.188-3.994-8.767-7.598-10.715-13.247
				c-1.461-4.188-1.948-9.253,3.019-10.812c1.753-0.487,3.604-0.779,5.163,0.39c1.071,0.682,3.994,5.649,0.584,5.455
				c-1.656-0.098-0.779-2.825-2.728-3.312c-1.558-0.39-2.143,0.779-2.045,2.241c0.098,2.435,1.948,4.286,4.188,4.675
				c5.26,0.682,7.987-5.942,4.968-9.741c-2.63-3.604-9.156-4.773-12.857-2.532c-4.189,2.532-6.137,8.084-5.357,12.76
				c0.876,5.26,3.896,8.864,7.89,12.078c2.241,1.754,4.871,2.922,6.624,5.26c1.753,2.532,2.825,6.429-1.168,7.598
				c-1.461,0.39-3.799,0.292-4.871-1.072c-0.682-0.974-0.974-3.02,0.779-3.117c1.559-0.098,0.974,2.727,2.533,2.045"/>
		</g>
		<g>
			<g>
				<path style="fill:#67192D;" d="M29.365,130.728c1.102,5.355-0.654,10.353-2.876,15.168c-0.503,1.09-1.044,2.162-1.66,3.191
					c-1.085,1.812-0.481-0.929-0.2-1.605c0.253-0.609-0.631-1.01-1.044-0.608c-1.33,1.295-2.726,2.56-4.29,3.564
					c0.75-0.482,1.577-2.41,2.275-3.188c0.676-0.752,1.417-1.447,2.167-2.123c0.37-0.332,0.145-0.903-0.276-1.044
					c-0.97-0.326-3.254-0.312-0.517-1.395c0.726-0.287,1.561-0.587,2.157-1.116c2.205-1.957,2.966-4.362,3.716-7.143
					c0.21-0.779-0.996-1.11-1.205-0.332c-1.026,3.805-2.186,6.273-6.03,7.793c-0.513,0.203-1.596,0.632-1.777,1.293
					c-0.437,1.588,2.462,1.816,3.325,2.105c-0.092-0.348-0.184-0.696-0.276-1.045c-1.003,0.902-6.534,5.622-4.746,7.41
					c1.471,1.471,5.502-3.06,6.36-3.896c-0.348-0.203-0.696-0.405-1.044-0.608c-0.66,1.586-2.176,3.23-0.807,4.807
					c0.714,0.822,2.027-0.485,2.399-0.977c4.18-5.53,6.968-13.712,5.554-20.584C30.408,129.606,29.203,129.941,29.365,130.728
					L29.365,130.728z"/>
			</g>
		</g>
		<g>
			<g>
				<path style="fill:#67192D;" d="M27.686,135.481c-0.041,3.588-1.456,6.67-3.616,9.474c-0.492,0.639,0.595,1.26,1.079,0.631
					c2.297-2.98,3.743-6.306,3.787-10.105C28.945,134.674,27.695,134.675,27.686,135.481L27.686,135.481z"/>
			</g>
		</g>
		<g>
			<g>
				<path style="fill:#67192D;" d="M29.874,96.938c2.875,1.125,7.375,3.75,10.438,2c2.75-1.563-1.188-3.313-2.625-3.438
					C34.937,95.313,32.499,96.5,29.874,96.938"/>
			</g>
			<g>
				<g>
					<path style="fill:#67192D;" d="M30.834,99.416c0.435,1.536,0.949,3.214,2.003,4.451c0.809,0.95,2.243,1.765,3.321,0.726
						c1.033-0.997,0.118-2.58-0.624-3.398c-1.029-1.135-2.504-2.02-3.932-2.547c-0.758-0.28-1.082,0.928-0.332,1.205
						c1.345,0.497,3.937,1.858,4.063,3.489c0.058,0.747-0.74,0.461-1.084,0.19c-0.442-0.349-0.749-0.841-1.026-1.322
						c-0.558-0.964-0.881-2.061-1.183-3.126C31.82,98.31,30.614,98.639,30.834,99.416L30.834,99.416z"/>
				</g>
			</g>
			<g>
				<g>
					<path style="fill:#67192D;" d="M31.604,95.538c1.633-0.234,3.303-0.558,4.719-1.449c0.912-0.574,2.019-2.115,1.03-3.128
						c-2.213-2.266-5.537,1.932-6.455,3.659c-0.378,0.712,0.701,1.343,1.079,0.631c0.688-1.294,2.232-3.489,3.84-3.64
						c0.973-0.091,0.556,0.799,0.167,1.174c-0.451,0.434-1.107,0.685-1.682,0.89c-0.973,0.347-2.012,0.512-3.031,0.658
						C30.477,94.446,30.816,95.65,31.604,95.538L31.604,95.538z"/>
				</g>
			</g>
		</g>
		<g>
			<g>
				<path style="fill:#67192D;" d="M98.91,28.318c-0.898,2.954-3.167,7.644-1.184,10.561c1.771,2.62,3.21-1.441,3.224-2.884
					C100.923,33.239,99.55,30.901,98.91,28.318"/>
			</g>
			<g>
				<g>
					<path style="fill:#67192D;" d="M96.56,29.453c-1.537,0.568-3.062,1.217-4.295,2.322c-0.839,0.751-1.776,2.697-0.408,3.467
						c2.688,1.513,4.925-3.085,5.472-5.02c0.22-0.777-0.986-1.107-1.205-0.332c-0.404,1.427-1.463,3.864-3.016,4.346
						c-0.788,0.244-0.726-0.466-0.504-0.931c0.242-0.505,0.826-0.908,1.269-1.212c0.918-0.631,1.98-1.049,3.019-1.434
						C97.642,30.381,97.318,29.172,96.56,29.453L96.56,29.453z"/>
				</g>
			</g>
			<g>
				<g>
					<path style="fill:#67192D;" d="M100.425,29.888c0.36,1.613,0.81,3.292,1.824,4.628c0.758,1,2.13,1.718,3.217,0.782
						c1.087-0.936,0.197-2.59-0.481-3.429c-0.921-1.139-2.306-2.105-3.642-2.687c-0.731-0.318-1.369,0.758-0.631,1.079
						c1.376,0.599,3.939,2.088,3.974,3.801c0.016,0.768-0.829,0.321-1.117,0.067c-0.42-0.372-0.694-0.89-0.943-1.383
						c-0.501-0.989-0.756-2.115-0.997-3.19C101.455,28.769,100.25,29.103,100.425,29.888L100.425,29.888z"/>
				</g>
			</g>
		</g>
	</g>
	<g>
		<g>
			<path style="fill:#67192D;" d="M581.239,12.886c0.39,2.24,0.487,4.675,0.39,7.013c-0.097,1.461-0.682,3.993-2.24,1.948
				c-0.876-1.169-0.779-2.922-0.779-4.188c-1.267,0.292-5.941,5.552-6.915,3.604c-0.877-1.656,3.604-4.967,4.675-5.552
				c-1.364-0.195-3.019,0.292-4.188-0.682c-1.947-1.656,0-2.727,1.754-2.922c2.338-0.195,4.869,0,7.013,0.487"/>
		</g>
		<g>
			<path style="fill:#67192D;" d="M572.96,16.685c-2.922,2.922-7.89,6.331-12.37,5.747c-2.435-0.39-4.772-2.825-5.261-5.26
				c-0.584-3.117,2.046-4.481,3.702-1.559c1.461,2.435,2.922,3.409,5.941,3.019C567.505,18.341,570.524,17.659,572.96,16.685"/>
		</g>
		<g>
			<path style="fill:#67192D;" d="M569.551,12.107c-2.532,5.26-7.208,3.896-8.961,0.39
				C563.415,12.107,566.726,12.107,569.551,12.107"/>
		</g>
		<g>
			<g>
				<path style="fill:#67192D;" d="M569.527,14.879c-3.359,1.806-7.488,2.627-9.371-1.529c-0.333-0.733-1.41-0.097-1.08,0.631
					c2.172,4.791,7.127,4.103,11.082,1.977C570.868,15.576,570.237,14.497,569.527,14.879L569.527,14.879z"/>
			</g>
		</g>
		<g>
			<path style="fill:#67192D;" d="M571.109,22.529c-5.845,7.11-19.188,15.974-28.149,8.376c-6.137-5.26-7.209-21.526,4.285-20.163
				c3.215,0.39,6.137,2.63,6.039,6.137c-0.098,2.825-1.948,5.455-4.968,5.649c-0.974,0.097-2.63,0-3.02-1.267
				c-0.779-1.851,1.559-1.753,2.63-2.337c3.507-1.753,0-4.578-2.727-3.897c-6.527,1.559-3.702,11.105,0.486,13.734
				c3.604,2.435,7.793,1.851,11.689,0.39c4.384-1.656,9.741-3.312,13.442-7.111"/>
		</g>
		<g>
			<g>
				<path style="fill:#67192D;" d="M546.489,16.827c-3.57-1.603-3.917,2.501-3.585,5.061c0.609,4.696,4.503,7.419,9.114,7.306
					c0.805-0.02,0.807-1.27,0-1.25c-3.284,0.08-6.675-1.431-7.616-4.847c-0.354-1.278-1.17-6.369,1.456-5.19
					C546.587,18.233,547.224,17.157,546.489,16.827L546.489,16.827z"/>
			</g>
		</g>
		<g>
			<path style="fill:#67192D;" d="M569.161,21.847c-3.799,2.338-6.916,4.383-11.201,5.747c-1.559,0.584-6.234,0.682-2.922-1.364
				c1.753-1.071,4.09-1.753,6.039-2.338c2.727-0.682,5.454-1.168,8.182-2.045"/>
		</g>
		<g>
			<path style="fill:#67192D;" d="M533.122,22.042c-2.241,2.435-4.676-0.974-4.092-3.312c0.584-2.63,3.604-3.604,5.844-2.825
				c4.384,1.363,3.508,7.305,1.754,10.325c-3.215,5.26-8.377,3.409-11.98-0.292c-3.994-4.188-7.598-8.767-13.248-10.715
				c-4.188-1.461-9.253-1.948-10.811,3.02c-0.487,1.753-0.778,3.604,0.39,5.163c0.682,1.071,5.65,3.994,5.455,0.584
				c-0.098-1.656-2.825-0.779-3.313-2.728c-0.389-1.558,0.779-2.143,2.24-2.045c2.436,0.098,4.287,1.948,4.676,4.188
				c0.682,5.26-5.941,7.987-9.74,4.968c-3.604-2.63-4.773-9.156-2.533-12.857c2.533-4.189,8.086-6.137,12.761-5.357
				c5.26,0.877,8.864,3.896,12.078,7.89c1.753,2.241,2.923,4.871,5.26,6.624c2.532,1.753,6.429,2.825,7.598-1.168
				c0.39-1.461,0.292-3.799-1.071-4.871c-0.975-0.682-3.02-0.974-3.117,0.779c-0.098,1.559,2.727,0.974,2.046,2.533"/>
		</g>
		<g>
			<path style="fill:#67192D;" d="M460.558,22.042c2.24,2.435,4.676-0.974,4.091-3.312c-0.584-2.63-3.603-3.604-5.845-2.825
				c-4.383,1.363-3.506,7.305-1.752,10.325c3.214,5.26,8.376,3.409,11.98-0.292c3.993-4.188,7.598-8.767,13.246-10.715
				c4.189-1.461,9.254-1.948,10.813,3.02c0.487,1.753,0.779,3.604-0.39,5.163c-0.682,1.071-5.649,3.994-5.454,0.584
				c0.098-1.656,2.824-0.779,3.311-2.728c0.39-1.558-0.779-2.143-2.241-2.045c-2.435,0.098-4.285,1.948-4.675,4.188
				c-0.682,5.26,5.942,7.987,9.741,4.968c3.603-2.63,4.772-9.156,2.531-12.857c-2.531-4.189-8.084-6.137-12.76-5.357
				c-5.26,0.877-8.863,3.896-12.078,7.89c-1.753,2.241-2.922,4.871-5.26,6.624c-2.532,1.753-6.429,2.825-7.598-1.168
				c-0.39-1.461-0.292-3.799,1.072-4.871c0.974-0.682,3.02-0.974,3.116,0.779c0.098,1.559-2.728,0.974-2.046,2.533"/>
		</g>
		<g>
			<g>
				<path style="fill:#67192D;" d="M463.651,28.209c-5.355,1.102-10.353-0.654-15.167-2.876c-1.09-0.503-2.162-1.043-3.191-1.66
					c-1.812-1.085,0.929-0.481,1.604-0.2c0.609,0.253,1.01-0.631,0.608-1.045c-1.295-1.33-2.56-2.726-3.565-4.289
					c0.482,0.749,2.411,1.577,3.189,2.275c0.751,0.676,1.447,1.417,2.122,2.167c0.333,0.369,0.904,0.145,1.045-0.276
					c0.325-0.97,0.312-3.255,1.395-0.518c0.286,0.726,0.586,1.561,1.115,2.157c1.957,2.205,4.363,2.966,7.144,3.716
					c0.779,0.21,1.109-0.996,0.332-1.205c-3.805-1.026-6.273-2.186-7.793-6.03c-0.202-0.513-0.633-1.596-1.292-1.777
					c-1.589-0.437-1.816,2.462-2.105,3.325c0.348-0.092,0.696-0.184,1.045-0.276c-0.902-1.003-5.623-6.534-7.411-4.746
					c-1.471,1.471,3.06,5.501,3.896,6.36c0.203-0.348,0.406-0.696,0.608-1.044c-1.586-0.66-3.23-2.177-4.807-0.807
					c-0.822,0.714,0.485,2.027,0.978,2.399c5.53,4.18,13.712,6.968,20.583,5.554C464.772,29.252,464.438,28.047,463.651,28.209
					L463.651,28.209z"/>
			</g>
		</g>
		<g>
			<g>
				<path style="fill:#67192D;" d="M458.899,26.531c-3.588-0.041-6.671-1.456-9.475-3.616c-0.639-0.492-1.26,0.595-0.631,1.079
					c2.982,2.297,6.307,3.743,10.105,3.787C459.706,27.79,459.705,26.54,458.899,26.531L458.899,26.531z"/>
			</g>
		</g>
		<g>
			<path style="fill:#67192D;" d="M577.528,21.42c-2.922,2.922-6.332,7.89-5.747,12.37c0.39,2.436,2.825,4.773,5.26,5.26
				c3.117,0.584,4.48-2.045,1.559-3.702c-2.435-1.461-3.409-2.922-3.02-5.941C575.872,26.875,576.554,23.855,577.528,21.42"/>
		</g>
		<g>
			<path style="fill:#67192D;" d="M582.106,24.829c-5.26,2.532-3.896,7.208-0.391,8.961
				C582.106,30.965,582.106,27.654,582.106,24.829"/>
		</g>
		<g>
			<g>
				<path style="fill:#67192D;" d="M578.254,24.221c-2.125,3.956-2.814,8.911,1.978,11.082c0.729,0.33,1.364-0.747,0.631-1.079
					c-4.156-1.884-3.335-6.012-1.529-9.373C579.715,24.142,578.636,23.511,578.254,24.221L578.254,24.221z"/>
			</g>
		</g>
		<g>
			<path style="fill:#67192D;" d="M571.684,23.271c-7.11,5.844-15.974,19.189-8.376,28.15c5.26,6.137,21.525,7.208,20.162-4.286
				c-0.39-3.214-2.63-6.137-6.137-6.039c-2.824,0.097-5.455,1.948-5.649,4.968c-0.097,0.974,0,2.63,1.267,3.02
				c1.851,0.779,1.753-1.559,2.338-2.63c1.753-3.507,4.578,0,3.896,2.727c-1.559,6.526-11.105,3.702-13.734-0.487
				c-2.436-3.604-1.852-7.792-0.391-11.688c1.656-4.383,3.313-9.741,7.111-13.442"/>
		</g>
		<g>
			<g>
				<path style="fill:#67192D;" d="M576.307,48.521c1.157,2.58-3.612,1.799-4.882,1.531c-3.587-0.759-5.237-4.322-5.155-7.69
					c0.02-0.807-1.23-0.805-1.25,0c-0.111,4.573,2.525,8.367,7.139,9.091c2.57,0.403,6.853,0.063,5.228-3.562
					C577.057,47.156,575.98,47.792,576.307,48.521L576.307,48.521z"/>
			</g>
		</g>
		<g>
			<path style="fill:#67192D;" d="M572.366,25.219c-2.338,3.799-4.384,6.916-5.748,11.202c-0.584,1.558-0.682,6.234,1.364,2.922
				c1.071-1.753,1.753-4.091,2.338-6.039c0.682-2.727,1.169-5.455,2.046-8.182"/>
		</g>
		<g>
			<path style="fill:#67192D;" d="M572.171,61.258c-2.435,2.241,0.975,4.676,3.311,4.091c2.63-0.585,3.605-3.604,2.825-5.844
				c-1.363-4.383-7.306-3.507-10.325-1.753c-5.26,3.214-3.409,8.377,0.292,11.981c4.188,3.994,8.767,7.598,10.715,13.247
				c1.461,4.188,1.947,9.253-3.02,10.812c-1.754,0.487-3.603,0.779-5.162-0.39c-1.072-0.682-3.994-5.65-0.585-5.455
				c1.655,0.098,0.779,2.825,2.728,3.312c1.559,0.39,2.143-0.779,2.045-2.24c-0.098-2.435-1.947-4.286-4.188-4.676
				c-5.26-0.682-7.988,5.942-4.969,9.741c2.631,3.604,9.156,4.773,12.857,2.533c4.189-2.533,6.137-8.085,5.357-12.76
				c-0.876-5.26-3.896-8.864-7.889-12.078c-2.241-1.753-4.871-2.922-6.624-5.26c-1.753-2.533-2.825-6.429,1.169-7.598
				c1.461-0.39,3.799-0.292,4.87,1.071c0.682,0.974,0.974,3.02-0.779,3.117c-1.559,0.097-0.974-2.728-2.532-2.046"/>
		</g>
		<g>
			<path style="fill:#67192D;" d="M572.171,133.822c-2.435-2.24,0.975-4.675,3.311-4.091c2.63,0.584,3.605,3.604,2.825,5.844
				c-1.363,4.383-7.306,3.506-10.325,1.753c-5.26-3.214-3.409-8.376,0.292-11.98c4.188-3.994,8.767-7.598,10.715-13.247
				c1.461-4.188,1.947-9.253-3.02-10.812c-1.754-0.487-3.603-0.779-5.162,0.39c-1.072,0.682-3.994,5.649-0.585,5.455
				c1.655-0.098,0.779-2.825,2.728-3.312c1.559-0.39,2.143,0.779,2.045,2.241c-0.098,2.435-1.947,4.286-4.188,4.675
				c-5.26,0.682-7.988-5.942-4.969-9.741c2.631-3.604,9.156-4.773,12.857-2.532c4.189,2.532,6.137,8.084,5.357,12.76
				c-0.876,5.26-3.896,8.864-7.889,12.078c-2.241,1.754-4.871,2.922-6.624,5.26c-1.753,2.532-2.825,6.429,1.169,7.598
				c1.461,0.39,3.799,0.292,4.87-1.072c0.682-0.974,0.974-3.02-0.779-3.117c-1.559-0.098-0.974,2.727-2.532,2.045"/>
		</g>
		<g>
			<g>
				<path style="fill:#67192D;" d="M564.799,130.396c-1.4,6.806,1.341,14.274,5.078,19.955c0.475,0.721,1.661,2.341,2.748,1.704
					c1.84-1.078-0.201-3.755-0.68-4.905c-0.348,0.203-0.696,0.405-1.045,0.608c1.042,1.014,4.474,5.025,6.234,3.994
					c2.251-1.318-3.853-6.817-4.619-7.507c-0.093,0.348-0.184,0.696-0.276,1.045c0.862-0.289,3.762-0.517,3.325-2.105
					c-0.182-0.661-1.265-1.089-1.778-1.293c-3.843-1.52-5.003-3.989-6.029-7.793c-0.21-0.777-1.415-0.447-1.205,0.332
					c0.639,2.368,1.306,4.443,2.85,6.374c0.718,0.898,1.858,1.39,2.874,1.822c2.657,1.131,0.85,1.048-0.368,1.457
					c-0.42,0.141-0.646,0.712-0.276,1.044c0.754,0.678,1.467,1.39,2.168,2.123c0.659,0.689,1.596,2.847,2.276,3.188
					c-1.589-0.795-3.021-2.327-4.29-3.564c-0.413-0.402-1.299-0.001-1.045,0.608c0.112,0.272,0.226,0.544,0.34,0.816
					c0.62,0.544,0.578,1.018-0.124,1.422c-0.87-1.151-1.451-2.538-2.076-3.824c-2.298-4.724-3.961-9.895-2.876-15.168
					C566.166,129.941,564.961,129.606,564.799,130.396L564.799,130.396z"/>
			</g>
		</g>
		<g>
			<g>
				<path style="fill:#67192D;" d="M566.433,135.481c0.043,3.799,1.49,7.124,3.786,10.105c0.485,0.629,1.571,0.008,1.08-0.631
					c-2.16-2.804-3.575-5.886-3.616-9.474C567.674,134.675,566.424,134.674,566.433,135.481L566.433,135.481z"/>
			</g>
		</g>
		<g>
			<g>
				<path style="fill:#67192D;" d="M565.494,96.938c-2.875,1.125-7.375,3.75-10.438,2c-2.75-1.563,1.188-3.313,2.625-3.438
					C560.432,95.313,562.869,96.5,565.494,96.938"/>
			</g>
			<g>
				<g>
					<path style="fill:#67192D;" d="M563.329,99.084c-0.28,0.987-0.596,1.957-1.052,2.879c-0.161,0.327-1.771,2.729-2.204,1.679
						c-0.354-0.859,0.853-1.8,1.398-2.254c0.763-0.638,1.693-1.19,2.627-1.535c0.75-0.277,0.426-1.485-0.332-1.205
						c-1.838,0.678-6.363,3.268-4.653,5.818c0.827,1.234,2.48,0.401,3.251-0.402c1.177-1.227,1.719-3.054,2.171-4.648
						C564.755,98.639,563.549,98.31,563.329,99.084L563.329,99.084z"/>
				</g>
			</g>
			<g>
				<g>
					<path style="fill:#67192D;" d="M564.097,94.332c-0.93-0.133-1.847-0.303-2.749-0.567c-0.505-0.147-0.981-0.355-1.44-0.61
						c-0.295-0.164-1.578-1.164-0.75-1.494c0.903-0.359,2,0.802,2.551,1.348c0.663,0.657,1.245,1.416,1.683,2.241
						c0.379,0.712,1.458,0.081,1.08-0.631c-0.673-1.265-1.675-2.452-2.81-3.324c-0.893-0.686-2.512-1.498-3.508-0.477
						c-0.976,0.999-0.317,2.401,0.675,3.113c1.429,1.027,3.229,1.361,4.937,1.605C564.553,95.65,564.893,94.446,564.097,94.332
						L564.097,94.332z"/>
				</g>
			</g>
		</g>
		<g>
			<g>
				<path style="fill:#67192D;" d="M496.458,28.318c0.898,2.954,3.166,7.644,1.184,10.561c-1.772,2.62-3.21-1.441-3.223-2.884
					C494.444,33.239,495.818,30.901,496.458,28.318"/>
			</g>
			<g>
				<g>
					<path style="fill:#67192D;" d="M498.476,30.658c0.964,0.357,1.899,0.757,2.784,1.283c0.496,0.295,0.929,0.66,1.313,1.089
						c0.439,0.493,0.609,1.348-0.312,1.205c-0.786-0.123-1.443-1.203-1.831-1.797c-0.51-0.782-0.931-1.649-1.186-2.549
						c-0.219-0.774-1.425-0.445-1.205,0.332c0.548,1.935,2.785,6.534,5.473,5.02c1.298-0.731,0.486-2.488-0.225-3.285
						c-1.131-1.267-2.928-1.931-4.479-2.504C498.05,29.172,497.727,30.381,498.476,30.658L498.476,30.658z"/>
				</g>
			</g>
			<g>
				<g>
					<path style="fill:#67192D;" d="M493.738,29.556c-0.224,0.997-0.478,1.994-0.88,2.937c-0.224,0.525-0.514,1.025-0.886,1.458
						c-0.31,0.362-1.196,0.953-1.291,0.111c-0.099-0.875,0.921-1.708,1.496-2.218c0.729-0.646,1.586-1.195,2.479-1.583
						c0.737-0.32,0.1-1.397-0.631-1.079c-1.371,0.596-2.658,1.565-3.643,2.687c-0.712,0.812-1.543,2.515-0.481,3.429
						c1.087,0.935,2.46,0.218,3.218-0.782c1.015-1.337,1.463-3.015,1.824-4.628C495.119,29.103,493.914,28.769,493.738,29.556
						L493.738,29.556z"/>
				</g>
			</g>
		</g>
	</g>
	<g>
		<g>
			<path style="fill:#67192D;" d="M14.13,402.328c-0.39-2.24-0.487-4.676-0.39-7.014c0.098-1.461,0.682-3.993,2.24-1.947
				c0.877,1.168,0.779,2.922,0.779,4.188c1.266-0.292,5.941-5.552,6.916-3.603c0.877,1.656-3.604,4.967-4.676,5.552
				c1.363,0.194,3.02-0.292,4.188,0.683c1.948,1.655,0,2.727-1.753,2.922c-2.338,0.194-4.871,0-7.014-0.487"/>
		</g>
		<g>
			<path style="fill:#67192D;" d="M22.409,398.529c2.922-2.922,7.89-6.332,12.37-5.747c2.436,0.39,4.773,2.825,5.26,5.26
				c0.585,3.117-2.045,4.48-3.701,1.559c-1.461-2.435-2.922-3.409-5.941-3.02C27.863,396.873,24.844,397.555,22.409,398.529"/>
		</g>
		<g>
			<path style="fill:#67192D;" d="M25.818,403.107c2.532-5.26,7.208-3.896,8.961-0.391
				C31.955,403.107,28.643,403.107,25.818,403.107"/>
		</g>
		<g>
			<g>
				<path style="fill:#67192D;" d="M25.841,400.335c3.361-1.805,7.489-2.627,9.374,1.529c0.332,0.733,1.409,0.098,1.079-0.631
					c-2.172-4.792-7.126-4.103-11.083-1.978C24.5,399.637,25.131,400.716,25.841,400.335L25.841,400.335z"/>
			</g>
		</g>
		<g>
			<path style="fill:#67192D;" d="M24.26,392.685c5.844-7.11,19.189-15.974,28.15-8.376c6.137,5.26,7.207,21.525-4.286,20.162
				c-3.214-0.39-6.137-2.63-6.039-6.137c0.097-2.824,1.948-5.455,4.968-5.649c0.975-0.097,2.63,0,3.02,1.267
				c0.779,1.851-1.559,1.753-2.63,2.338c-3.507,1.753,0,4.578,2.727,3.896c6.525-1.558,3.701-11.105-0.487-13.734
				c-3.604-2.436-7.792-1.852-11.688-0.391c-4.383,1.656-9.74,3.313-13.441,7.111"/>
		</g>
		<g>
			<g>
				<path style="fill:#67192D;" d="M48.88,398.388c3.571,1.602,3.916-2.503,3.584-5.061c-0.61-4.695-4.502-7.418-9.112-7.306
					c-0.805,0.02-0.807,1.27,0,1.25c3.283-0.08,6.672,1.433,7.615,4.847c0.353,1.277,1.17,6.368-1.456,5.19
					C48.782,396.981,48.146,398.058,48.88,398.388L48.88,398.388z"/>
			</g>
		</g>
		<g>
			<path style="fill:#67192D;" d="M26.208,393.367c3.799-2.338,6.915-4.384,11.202-5.748c1.558-0.584,6.233-0.682,2.922,1.364
				c-1.754,1.071-4.092,1.753-6.039,2.338c-2.728,0.682-5.455,1.169-8.183,2.046"/>
		</g>
		<g>
			<path style="fill:#67192D;" d="M62.248,393.172c2.24-2.436,4.676,0.975,4.091,3.311c-0.585,2.63-3.604,3.604-5.845,2.825
				c-4.383-1.363-3.506-7.306-1.753-10.325c3.214-5.26,8.377-3.409,11.982,0.292c3.993,4.189,7.598,8.767,13.246,10.715
				c4.189,1.461,9.254,1.947,10.813-3.02c0.486-1.754,0.779-3.604-0.39-5.162c-0.683-1.072-5.649-3.994-5.455-0.585
				c0.098,1.655,2.825,0.779,3.312,2.728c0.391,1.559-0.779,2.143-2.24,2.045c-2.435-0.098-4.285-1.947-4.676-4.188
				c-0.682-5.26,5.942-7.988,9.741-4.969c3.604,2.631,4.773,9.156,2.532,12.857c-2.532,4.189-8.084,6.137-12.76,5.357
				c-5.26-0.876-8.863-3.895-12.078-7.889c-1.754-2.241-2.922-4.871-5.26-6.624c-2.533-1.753-6.429-2.825-7.598,1.169
				c-0.39,1.461-0.293,3.799,1.071,4.87c0.974,0.682,3.02,0.974,3.117-0.779c0.097-1.559-2.728-0.974-2.046-2.532"/>
		</g>
		<g>
			<path style="fill:#67192D;" d="M134.811,393.172c-2.24-2.436-4.675,0.975-4.091,3.311c0.584,2.63,3.604,3.604,5.844,2.825
				c4.384-1.363,3.507-7.306,1.754-10.325c-3.215-5.26-8.377-3.409-11.98,0.292c-3.994,4.189-7.598,8.767-13.248,10.715
				c-4.188,1.461-9.253,1.947-10.812-3.02c-0.487-1.754-0.779-3.604,0.39-5.162c0.682-1.072,5.649-3.994,5.455-0.585
				c-0.098,1.655-2.825,0.779-3.313,2.728c-0.39,1.559,0.779,2.143,2.24,2.045c2.436-0.098,4.286-1.947,4.676-4.188
				c0.682-5.26-5.941-7.988-9.74-4.969c-3.604,2.631-4.773,9.156-2.533,12.857c2.533,4.189,8.085,6.137,12.76,5.357
				c5.26-0.876,8.864-3.895,12.078-7.889c1.754-2.241,2.923-4.871,5.261-6.624c2.532-1.753,6.429-2.825,7.598,1.169
				c0.39,1.461,0.292,3.799-1.071,4.87c-0.975,0.682-3.02,0.974-3.117-0.779c-0.098-1.559,2.727-0.974,2.045-2.532"/>
		</g>
		<g>
			<g>
				<path style="fill:#67192D;" d="M131.717,387.005c5.356-1.102,10.354,0.653,15.169,2.876c1.09,0.503,2.162,1.043,3.191,1.66
					c1.811,1.086-0.93,0.482-1.605,0.2c-0.609-0.254-1.01,0.632-0.608,1.045c1.295,1.329,2.56,2.726,3.564,4.29
					c-0.482-0.751-2.41-1.578-3.187-2.276c-0.751-0.676-1.448-1.417-2.123-2.168c-0.332-0.369-0.903-0.143-1.044,0.276
					c-0.327,0.971-0.313,3.254-1.395,0.518c-0.287-0.726-0.587-1.561-1.116-2.157c-1.956-2.204-4.362-2.966-7.143-3.716
					c-0.779-0.211-1.109,0.995-0.332,1.205c3.804,1.026,6.273,2.186,7.794,6.029c0.203,0.514,0.631,1.597,1.292,1.778
					c1.588,0.437,1.816-2.464,2.106-3.325c-0.348,0.092-0.696,0.184-1.044,0.276c0.901,1.002,5.622,6.533,7.409,4.746
					c1.471-1.471-3.06-5.503-3.896-6.361c-0.203,0.349-0.405,0.697-0.608,1.045c1.586,0.66,3.229,2.176,4.808,0.806
					c0.822-0.713-0.485-2.026-0.977-2.399c-5.53-4.181-13.712-6.968-20.584-5.554C130.595,385.962,130.93,387.167,131.717,387.005
					L131.717,387.005z"/>
			</g>
		</g>
		<g>
			<g>
				<path style="fill:#67192D;" d="M136.471,388.684c3.587,0.041,6.67,1.455,9.474,3.616c0.639,0.491,1.26-0.595,0.631-1.08
					c-2.98-2.296-6.306-3.743-10.104-3.786C135.664,387.425,135.665,388.675,136.471,388.684L136.471,388.684z"/>
			</g>
		</g>
		<g>
			<path style="fill:#67192D;" d="M17.842,393.794c2.922-2.922,6.33-7.89,5.746-12.37c-0.39-2.435-2.824-4.773-5.26-5.26
				c-3.117-0.585-4.48,2.045-1.559,3.701c2.436,1.461,3.409,2.922,3.02,5.941C19.497,388.34,18.815,391.359,17.842,393.794"/>
		</g>
		<g>
			<path style="fill:#67192D;" d="M13.264,390.385c5.26-2.532,3.896-7.208,0.389-8.961C13.264,384.248,13.264,387.56,13.264,390.385
				"/>
		</g>
		<g>
			<g>
				<path style="fill:#67192D;" d="M17.114,390.993c2.126-3.956,2.815-8.911-1.976-11.084c-0.728-0.33-1.364,0.747-0.631,1.08
					c4.155,1.884,3.333,6.014,1.528,9.373C15.653,391.072,16.732,391.703,17.114,390.993L17.114,390.993z"/>
			</g>
		</g>
		<g>
			<path style="fill:#67192D;" d="M23.685,391.943c7.11-5.844,15.975-19.189,8.377-28.15c-5.26-6.137-21.527-7.207-20.163,4.286
				c0.39,3.214,2.63,6.137,6.137,6.039c2.825-0.097,5.454-1.948,5.649-4.968c0.098-0.975,0-2.63-1.267-3.02
				c-1.851-0.779-1.753,1.559-2.337,2.63c-1.754,3.507-4.578,0-3.897-2.728c1.559-6.525,11.104-3.701,13.734,0.487
				c2.435,3.604,1.85,7.792,0.389,11.689c-1.656,4.383-3.311,9.74-7.11,13.441"/>
		</g>
		<g>
			<g>
				<path style="fill:#67192D;" d="M19.063,366.692c-1.158-2.58,3.611-1.799,4.881-1.53c3.587,0.759,5.239,4.32,5.156,7.689
					c-0.02,0.807,1.23,0.805,1.25,0c0.113-4.573-2.526-8.366-7.14-9.09c-2.569-0.403-6.854-0.063-5.226,3.562
					C18.313,368.058,19.391,367.421,19.063,366.692L19.063,366.692z"/>
			</g>
		</g>
		<g>
			<path style="fill:#67192D;" d="M23.004,389.995c2.338-3.799,4.383-6.915,5.746-11.202c0.585-1.558,0.682-6.233-1.363-2.922
				c-1.071,1.754-1.754,4.092-2.338,6.039c-0.682,2.729-1.168,5.455-2.045,8.183"/>
		</g>
		<g>
			<path style="fill:#67192D;" d="M23.198,353.955c2.435-2.24-0.974-4.676-3.312-4.091c-2.63,0.585-3.604,3.605-2.824,5.845
				c1.363,4.383,7.305,3.506,10.324,1.753c5.26-3.214,3.409-8.377-0.292-11.981c-4.188-3.993-8.767-7.598-10.715-13.246
				c-1.461-4.19-1.948-9.254,3.02-10.813c1.753-0.486,3.604-0.779,5.163,0.39c1.07,0.683,3.993,5.649,0.584,5.455
				c-1.656-0.098-0.779-2.825-2.728-3.311c-1.558-0.391-2.142,0.779-2.046,2.24c0.098,2.435,1.949,4.285,4.19,4.676
				c5.26,0.682,7.986-5.942,4.967-9.741c-2.629-3.605-9.156-4.773-12.857-2.532c-4.188,2.532-6.137,8.084-5.357,12.76
				c0.877,5.26,3.896,8.863,7.891,12.078c2.24,1.754,4.87,2.922,6.623,5.26c1.754,2.533,2.824,6.429-1.168,7.598
				c-1.462,0.39-3.799,0.293-4.871-1.071c-0.682-0.974-0.975-3.02,0.779-3.117c1.559-0.097,0.975,2.728,2.533,2.046"/>
		</g>
		<g>
			<path style="fill:#67192D;" d="M23.198,281.392c2.435,2.24-0.974,4.675-3.312,4.091c-2.63-0.584-3.604-3.603-2.824-5.844
				c1.363-4.384,7.305-3.507,10.324-1.754c5.26,3.215,3.409,8.377-0.292,11.98c-4.188,3.994-8.767,7.598-10.715,13.248
				c-1.461,4.188-1.948,9.253,3.02,10.811c1.753,0.487,3.604,0.779,5.163-0.39c1.07-0.682,3.993-5.649,0.584-5.455
				c-1.656,0.098-0.779,2.825-2.728,3.313c-1.558,0.39-2.142-0.779-2.046-2.24c0.098-2.436,1.949-4.286,4.19-4.676
				c5.26-0.682,7.986,5.941,4.967,9.74c-2.629,3.604-9.156,4.773-12.857,2.533c-4.188-2.533-6.137-8.085-5.357-12.76
				c0.877-5.26,3.896-8.864,7.891-12.078c2.24-1.754,4.87-2.923,6.623-5.261c1.754-2.532,2.824-6.429-1.168-7.598
				c-1.462-0.39-3.799-0.292-4.871,1.071c-0.682,0.975-0.975,3.02,0.779,3.117c1.559,0.098,0.975-2.727,2.533-2.045"/>
		</g>
		<g>
			<g>
				<path style="fill:#67192D;" d="M30.571,284.818c1.399-6.806-1.341-14.275-5.079-19.955c-0.475-0.722-1.662-2.341-2.749-1.704
					c-1.839,1.077,0.203,3.756,0.681,4.905c0.348-0.202,0.696-0.405,1.045-0.608c-1.041-1.014-4.472-5.025-6.233-3.994
					c-2.251,1.319,3.851,6.817,4.619,7.508c0.092-0.349,0.184-0.697,0.276-1.045c-0.862,0.29-3.761,0.518-3.324,2.107
					c0.181,0.659,1.265,1.089,1.777,1.292c3.844,1.521,5.004,3.987,6.03,7.793c0.209,0.777,1.415,0.447,1.205-0.332
					c-0.638-2.368-1.305-4.443-2.849-6.374c-0.718-0.898-1.859-1.39-2.875-1.822c-2.658-1.132-0.85-1.049,0.368-1.458
					c0.42-0.141,0.646-0.712,0.276-1.045c-0.754-0.678-1.466-1.39-2.168-2.122c-0.659-0.688-1.596-2.847-2.275-3.186
					c1.588,0.795,3.02,2.327,4.29,3.564c0.413,0.402,1.298,0.001,1.044-0.608c-0.112-0.272-0.225-0.545-0.34-0.816
					c-0.619-0.544-0.578-1.018,0.123-1.422c0.87,1.151,1.451,2.539,2.077,3.824c2.298,4.724,3.961,9.895,2.877,15.168
					C29.204,285.272,30.409,285.607,30.571,284.818L30.571,284.818z"/>
			</g>
		</g>
		<g>
			<g>
				<path style="fill:#67192D;" d="M28.938,279.732c-0.044-3.799-1.49-7.124-3.787-10.104c-0.484-0.629-1.571-0.008-1.079,0.631
					c2.16,2.804,3.575,5.886,3.616,9.474C27.697,280.538,28.947,280.539,28.938,279.732L28.938,279.732z"/>
			</g>
		</g>
		<g>
			<g>
				<path style="fill:#67192D;" d="M29.875,318.276c2.875-1.125,7.375-3.75,10.438-2c2.75,1.563-1.188,3.313-2.625,3.438
					C34.938,319.901,32.5,318.714,29.875,318.276"/>
			</g>
			<g>
				<g>
					<path style="fill:#67192D;" d="M32.04,316.13c0.28-0.987,0.595-1.957,1.052-2.879c0.162-0.327,1.771-2.729,2.204-1.679
						c0.354,0.858-0.852,1.8-1.396,2.254c-0.764,0.638-1.694,1.19-2.627,1.535c-0.75,0.276-0.426,1.485,0.332,1.205
						c1.837-0.679,6.363-3.268,4.653-5.818c-0.827-1.233-2.48-0.401-3.25,0.401c-1.177,1.228-1.72,3.054-2.171,4.648
						C30.615,316.575,31.821,316.904,32.04,316.13L32.04,316.13z"/>
				</g>
			</g>
			<g>
				<g>
					<path style="fill:#67192D;" d="M31.273,320.882c0.929,0.134,1.846,0.304,2.748,0.567c0.505,0.148,0.982,0.355,1.441,0.61
						c0.295,0.164,1.579,1.163,0.749,1.493c-0.904,0.359-1.999-0.801-2.55-1.348c-0.663-0.657-1.244-1.417-1.682-2.241
						c-0.378-0.712-1.458-0.08-1.079,0.631c0.672,1.265,1.674,2.451,2.808,3.323c0.893,0.688,2.511,1.497,3.508,0.477
						c0.976-0.998,0.318-2.401-0.674-3.113c-1.429-1.025-3.229-1.36-4.936-1.605C30.817,319.564,30.478,320.768,31.273,320.882
						L31.273,320.882z"/>
				</g>
			</g>
		</g>
		<g>
			<g>
				<path style="fill:#67192D;" d="M98.911,386.897c-0.898-2.954-3.167-7.645-1.185-10.563c1.771-2.619,3.211,1.441,3.225,2.885
					C100.924,381.975,99.551,384.313,98.911,386.897"/>
			</g>
			<g>
				<g>
					<path style="fill:#67192D;" d="M96.893,384.556c-0.964-0.355-1.899-0.756-2.783-1.283c-0.496-0.295-0.929-0.659-1.313-1.089
						c-0.44-0.493-0.607-1.348,0.313-1.204c0.786,0.123,1.442,1.202,1.83,1.797c0.51,0.782,0.931,1.648,1.185,2.548
						c0.219,0.774,1.425,0.445,1.205-0.332c-0.546-1.936-2.784-6.532-5.471-5.02c-1.298,0.731-0.487,2.488,0.224,3.285
						c1.13,1.268,2.927,1.932,4.479,2.504C97.318,386.041,97.642,384.832,96.893,384.556L96.893,384.556z"/>
				</g>
			</g>
			<g>
				<g>
					<path style="fill:#67192D;" d="M101.632,385.658c0.223-0.998,0.476-1.994,0.879-2.936c0.224-0.525,0.515-1.025,0.887-1.459
						c0.31-0.361,1.195-0.952,1.29-0.111c0.099,0.875-0.921,1.708-1.496,2.218c-0.728,0.645-1.585,1.195-2.478,1.583
						c-0.738,0.321-0.101,1.398,0.631,1.08c1.371-0.597,2.657-1.565,3.642-2.688c0.712-0.811,1.543-2.514,0.48-3.429
						c-1.087-0.935-2.458-0.217-3.217,0.782c-1.014,1.337-1.464,3.015-1.823,4.628C100.251,386.111,101.456,386.445,101.632,385.658
						L101.632,385.658z"/>
				</g>
			</g>
		</g>
	</g>
	<g>
		<g>
			<path style="fill:#67192D;" d="M581.24,402.328c0.39-2.24,0.487-4.676,0.39-7.014c-0.097-1.461-0.682-3.993-2.24-1.947
				c-0.876,1.168-0.779,2.922-0.779,4.188c-1.267-0.292-5.942-5.552-6.915-3.603c-0.877,1.656,3.603,4.967,4.675,5.552
				c-1.364,0.194-3.019-0.292-4.188,0.683c-1.947,1.655,0,2.727,1.754,2.922c2.338,0.194,4.869,0,7.013-0.487"/>
		</g>
		<g>
			<path style="fill:#67192D;" d="M572.961,398.529c-2.922-2.922-7.89-6.332-12.37-5.747c-2.435,0.39-4.772,2.825-5.261,5.26
				c-0.584,3.117,2.046,4.48,3.702,1.559c1.461-2.435,2.922-3.409,5.941-3.02C567.506,396.873,570.525,397.555,572.961,398.529"/>
		</g>
		<g>
			<path style="fill:#67192D;" d="M569.552,403.107c-2.532-5.26-7.208-3.896-8.961-0.391
				C563.416,403.107,566.727,403.107,569.552,403.107"/>
		</g>
		<g>
			<g>
				<path style="fill:#67192D;" d="M570.159,399.255c-3.956-2.125-8.91-2.814-11.082,1.978c-0.329,0.729,0.747,1.364,1.08,0.631
					c1.883-4.156,6.011-3.335,9.371-1.529C570.238,400.716,570.869,399.637,570.159,399.255L570.159,399.255z"/>
			</g>
		</g>
		<g>
			<path style="fill:#67192D;" d="M571.11,392.685c-5.845-7.11-19.189-15.974-28.15-8.376c-6.137,5.26-7.209,21.525,4.285,20.162
				c3.215-0.39,6.137-2.63,6.039-6.137c-0.098-2.824-1.948-5.455-4.968-5.649c-0.974-0.097-2.63,0-3.019,1.267
				c-0.779,1.851,1.558,1.753,2.63,2.338c3.507,1.753,0,4.578-2.727,3.896c-6.527-1.558-3.702-11.105,0.486-13.734
				c3.604-2.436,7.793-1.852,11.688-0.391c4.384,1.656,9.741,3.313,13.442,7.111"/>
		</g>
		<g>
			<g>
				<path style="fill:#67192D;" d="M545.859,397.308c-2.58,1.157-1.8-3.612-1.531-4.882c0.759-3.588,4.323-5.237,7.691-5.155
					c0.807,0.02,0.805-1.23,0-1.25c-4.573-0.111-8.368,2.525-9.092,7.139c-0.403,2.57-0.063,6.853,3.563,5.228
					C547.225,398.058,546.588,396.981,545.859,397.308L545.859,397.308z"/>
			</g>
		</g>
		<g>
			<path style="fill:#67192D;" d="M569.162,393.367c-3.799-2.338-6.916-4.384-11.201-5.748c-1.559-0.584-6.234-0.682-2.922,1.364
				c1.753,1.071,4.09,1.753,6.039,2.338c2.727,0.682,5.454,1.169,8.182,2.046"/>
		</g>
		<g>
			<path style="fill:#67192D;" d="M533.123,393.172c-2.241-2.436-4.676,0.975-4.092,3.311c0.584,2.63,3.603,3.604,5.844,2.825
				c4.384-1.363,3.508-7.306,1.754-10.325c-3.215-5.26-8.377-3.409-11.981,0.292c-3.994,4.189-7.598,8.767-13.248,10.715
				c-4.188,1.461-9.253,1.947-10.811-3.02c-0.487-1.754-0.778-3.604,0.39-5.162c0.682-1.072,5.65-3.994,5.455-0.585
				c-0.098,1.655-2.825,0.779-3.313,2.728c-0.389,1.559,0.779,2.143,2.24,2.045c2.436-0.098,4.287-1.947,4.676-4.188
				c0.682-5.26-5.941-7.988-9.74-4.969c-3.603,2.631-4.773,9.156-2.533,12.857c2.533,4.189,8.086,6.137,12.761,5.357
				c5.26-0.876,8.864-3.895,12.078-7.889c1.753-2.241,2.923-4.871,5.26-6.624c2.532-1.753,6.429-2.825,7.598,1.169
				c0.39,1.461,0.292,3.799-1.071,4.87c-0.975,0.682-3.02,0.974-3.117-0.779c-0.098-1.559,2.728-0.974,2.046-2.532"/>
		</g>
		<g>
			<path style="fill:#67192D;" d="M460.559,393.172c2.24-2.436,4.676,0.975,4.091,3.311c-0.584,2.63-3.603,3.604-5.845,2.825
				c-4.383-1.363-3.506-7.306-1.752-10.325c3.214-5.26,8.376-3.409,11.981,0.292c3.993,4.189,7.598,8.767,13.246,10.715
				c4.189,1.461,9.254,1.947,10.813-3.02c0.487-1.754,0.779-3.604-0.39-5.162c-0.682-1.072-5.649-3.994-5.454-0.585
				c0.098,1.655,2.824,0.779,3.312,2.728c0.39,1.559-0.779,2.143-2.241,2.045c-2.435-0.098-4.285-1.947-4.675-4.188
				c-0.682-5.26,5.942-7.988,9.741-4.969c3.603,2.631,4.772,9.156,2.531,12.857c-2.531,4.189-8.084,6.137-12.76,5.357
				c-5.26-0.876-8.863-3.895-12.078-7.889c-1.753-2.241-2.922-4.871-5.26-6.624c-2.532-1.753-6.429-2.825-7.598,1.169
				c-0.39,1.461-0.292,3.799,1.072,4.87c0.974,0.682,3.02,0.974,3.116-0.779c0.098-1.559-2.728-0.974-2.046-2.532"/>
		</g>
		<g>
			<g>
				<path style="fill:#67192D;" d="M463.984,385.8c-6.806-1.4-14.273,1.341-19.954,5.078c-0.721,0.475-2.341,1.661-1.705,2.748
					c1.078,1.84,3.756-0.201,4.905-0.68c-0.202-0.348-0.405-0.696-0.608-1.045c-1.014,1.042-5.024,4.473-3.993,6.234
					c1.318,2.251,6.818-3.853,7.509-4.619c-0.349-0.093-0.697-0.185-1.045-0.276c0.288,0.862,0.517,3.762,2.105,3.325
					c0.66-0.182,1.089-1.265,1.292-1.778c1.52-3.843,3.989-5.003,7.793-6.029c0.777-0.21,0.447-1.416-0.332-1.205
					c-2.368,0.639-4.443,1.306-6.374,2.85c-0.897,0.718-1.39,1.858-1.822,2.874c-1.132,2.658-1.049,0.85-1.457-0.368
					c-0.141-0.421-0.712-0.646-1.045-0.276c-0.678,0.754-1.39,1.467-2.122,2.168c-0.689,0.659-2.848,1.597-3.189,2.276
					c0.796-1.589,2.327-3.021,3.564-4.29c0.401-0.413,0.001-1.299-0.608-1.045c-0.272,0.112-0.544,0.226-0.815,0.34
					c-0.544,0.62-1.019,0.578-1.422-0.124c1.151-0.87,2.539-1.451,3.824-2.076c4.723-2.298,9.895-3.961,15.167-2.876
					C464.438,387.167,464.773,385.962,463.984,385.8L463.984,385.8z"/>
			</g>
		</g>
		<g>
			<g>
				<path style="fill:#67192D;" d="M458.9,387.434c-3.799,0.043-7.124,1.49-10.105,3.786c-0.629,0.485-0.008,1.571,0.631,1.08
					c2.804-2.16,5.887-3.575,9.475-3.616C459.706,388.675,459.707,387.425,458.9,387.434L458.9,387.434z"/>
			</g>
		</g>
		<g>
			<path style="fill:#67192D;" d="M577.529,393.794c-2.922-2.922-6.332-7.89-5.747-12.37c0.39-2.435,2.825-4.773,5.26-5.26
				c3.117-0.585,4.48,2.045,1.559,3.701c-2.435,1.461-3.409,2.922-3.019,5.941C575.873,388.34,576.555,391.359,577.529,393.794"/>
		</g>
		<g>
			<path style="fill:#67192D;" d="M582.107,390.385c-5.26-2.532-3.896-7.208-0.391-8.961
				C582.107,384.248,582.107,387.56,582.107,390.385"/>
		</g>
		<g>
			<g>
				<path style="fill:#67192D;" d="M579.335,390.362c-1.805-3.36-2.627-7.489,1.529-9.373c0.733-0.333,0.098-1.41-0.631-1.08
					c-4.792,2.173-4.103,7.127-1.979,11.084C578.637,391.703,579.716,391.072,579.335,390.362L579.335,390.362z"/>
			</g>
		</g>
		<g>
			<path style="fill:#67192D;" d="M571.685,391.943c-7.11-5.844-15.974-19.189-8.376-28.15c5.26-6.137,21.525-7.207,20.162,4.286
				c-0.39,3.214-2.63,6.137-6.137,6.039c-2.824-0.097-5.455-1.948-5.649-4.968c-0.097-0.975,0-2.63,1.267-3.02
				c1.851-0.779,1.753,1.559,2.338,2.63c1.753,3.507,4.578,0,3.896-2.728c-1.558-6.525-11.105-3.701-13.734,0.487
				c-2.436,3.604-1.852,7.792-0.391,11.689c1.656,4.383,3.313,9.74,7.111,13.441"/>
		</g>
		<g>
			<g>
				<path style="fill:#67192D;" d="M577.388,367.323c1.601-3.571-2.503-3.916-5.062-3.584c-4.695,0.61-7.418,4.502-7.306,9.112
					c0.019,0.805,1.269,0.807,1.25,0c-0.08-3.283,1.433-6.673,4.847-7.615c1.277-0.353,6.368-1.17,5.19,1.456
					C575.981,367.422,577.058,368.058,577.388,367.323L577.388,367.323z"/>
			</g>
		</g>
		<g>
			<path style="fill:#67192D;" d="M572.367,389.995c-2.338-3.799-4.384-6.915-5.748-11.202c-0.584-1.558-0.682-6.233,1.364-2.922
				c1.071,1.754,1.753,4.092,2.338,6.039c0.682,2.729,1.169,5.455,2.046,8.183"/>
		</g>
		<g>
			<path style="fill:#67192D;" d="M572.172,353.955c-2.436-2.24,0.975-4.676,3.312-4.091c2.63,0.585,3.604,3.605,2.825,5.845
				c-1.363,4.383-7.306,3.506-10.325,1.753c-5.26-3.214-3.409-8.377,0.292-11.981c4.188-3.993,8.767-7.598,10.715-13.246
				c1.461-4.19,1.947-9.254-3.019-10.813c-1.754-0.486-3.604-0.779-5.162,0.39c-1.072,0.683-3.994,5.649-0.585,5.455
				c1.655-0.098,0.779-2.825,2.728-3.311c1.559-0.391,2.143,0.779,2.045,2.24c-0.098,2.435-1.947,4.285-4.188,4.676
				c-5.26,0.682-7.988-5.942-4.969-9.741c2.631-3.605,9.156-4.773,12.857-2.532c4.189,2.532,6.137,8.084,5.357,12.76
				c-0.876,5.26-3.896,8.863-7.889,12.078c-2.241,1.754-4.871,2.922-6.624,5.26c-1.753,2.533-2.825,6.429,1.169,7.598
				c1.461,0.39,3.799,0.293,4.87-1.071c0.682-0.974,0.974-3.02-0.779-3.117c-1.559-0.097-0.974,2.728-2.532,2.046"/>
		</g>
		<g>
			<path style="fill:#67192D;" d="M572.172,281.392c-2.436,2.24,0.975,4.675,3.312,4.091c2.63-0.584,3.604-3.603,2.825-5.844
				c-1.363-4.384-7.306-3.507-10.325-1.754c-5.26,3.215-3.409,8.377,0.292,11.98c4.188,3.994,8.767,7.598,10.715,13.248
				c1.461,4.188,1.947,9.253-3.019,10.811c-1.754,0.487-3.604,0.779-5.162-0.39c-1.072-0.682-3.994-5.649-0.585-5.455
				c1.655,0.098,0.779,2.825,2.728,3.313c1.559,0.39,2.143-0.779,2.045-2.24c-0.098-2.436-1.947-4.286-4.188-4.676
				c-5.26-0.682-7.988,5.941-4.969,9.74c2.631,3.604,9.156,4.773,12.857,2.533c4.189-2.533,6.137-8.085,5.357-12.76
				c-0.876-5.26-3.896-8.864-7.889-12.078c-2.241-1.754-4.871-2.923-6.624-5.261c-1.753-2.532-2.825-6.429,1.169-7.598
				c1.461-0.39,3.799-0.292,4.87,1.071c0.682,0.975,0.974,3.02-0.779,3.117c-1.559,0.098-0.974-2.727-2.532-2.045"/>
		</g>
		<g>
			<g>
				<path style="fill:#67192D;" d="M566.005,284.486c-1.102-5.355,0.653-10.353,2.876-15.168c0.503-1.09,1.043-2.162,1.66-3.191
					c1.086-1.812,0.481,0.93,0.2,1.605c-0.254,0.609,0.632,1.01,1.045,0.608c1.329-1.296,2.726-2.56,4.29-3.564
					c-0.751,0.481-1.578,2.409-2.276,3.186c-0.676,0.752-1.417,1.447-2.168,2.122c-0.369,0.333-0.143,0.903,0.276,1.045
					c0.971,0.327,3.254,0.313,0.518,1.395c-0.726,0.286-1.561,0.586-2.157,1.115c-2.204,1.957-2.966,4.363-3.716,7.144
					c-0.211,0.779,0.995,1.109,1.205,0.332c1.026-3.805,2.186-6.273,6.029-7.793c0.514-0.203,1.597-0.632,1.778-1.292
					c0.437-1.589-2.464-1.816-3.325-2.107c0.092,0.348,0.184,0.696,0.276,1.045c1.002-0.902,6.533-5.623,4.746-7.41
					c-1.471-1.47-5.503,3.06-6.361,3.896c0.349,0.203,0.697,0.406,1.045,0.608c0.66-1.587,2.176-3.23,0.806-4.808
					c-0.713-0.822-2.026,0.485-2.398,0.978c-4.181,5.53-6.968,13.712-5.554,20.584C564.962,285.607,566.167,285.272,566.005,284.486
					L566.005,284.486z"/>
			</g>
		</g>
		<g>
			<g>
				<path style="fill:#67192D;" d="M567.684,279.732c0.041-3.588,1.455-6.67,3.616-9.474c0.491-0.639-0.595-1.26-1.08-0.631
					c-2.296,2.98-3.743,6.306-3.786,10.104C566.425,280.539,567.675,280.538,567.684,279.732L567.684,279.732z"/>
			</g>
		</g>
		<g>
			<g>
				<path style="fill:#67192D;" d="M565.495,318.276c-2.875-1.125-7.375-3.75-10.438-2c-2.75,1.563,1.188,3.313,2.625,3.438
					C560.433,319.901,562.87,318.714,565.495,318.276"/>
			</g>
			<g>
				<g>
					<path style="fill:#67192D;" d="M564.535,315.798c-0.436-1.535-0.949-3.214-2.003-4.451c-0.81-0.949-2.243-1.765-3.321-0.725
						c-1.033,0.996-0.118,2.579,0.624,3.397c1.029,1.136,2.503,2.02,3.932,2.547c0.758,0.28,1.082-0.929,0.332-1.205
						c-1.345-0.497-3.936-1.858-4.063-3.489c-0.058-0.746,0.739-0.461,1.084-0.19c0.443,0.349,0.749,0.841,1.027,1.322
						c0.558,0.964,0.881,2.06,1.183,3.125C563.55,316.904,564.756,316.575,564.535,315.798L564.535,315.798z"/>
				</g>
			</g>
			<g>
				<g>
					<path style="fill:#67192D;" d="M563.766,319.677c-1.633,0.233-3.304,0.558-4.72,1.448c-0.912,0.574-2.019,2.115-1.03,3.128
						c2.213,2.267,5.538-1.932,6.456-3.658c0.378-0.711-0.701-1.343-1.08-0.631c-0.688,1.295-2.232,3.489-3.841,3.64
						c-0.973,0.091-0.554-0.8-0.166-1.174c0.45-0.435,1.105-0.685,1.682-0.89c0.973-0.348,2.013-0.512,3.031-0.658
						C564.894,320.769,564.554,319.564,563.766,319.677L563.766,319.677z"/>
				</g>
			</g>
		</g>
		<g>
			<g>
				<path style="fill:#67192D;" d="M496.459,386.897c0.898-2.954,3.166-7.645,1.184-10.563c-1.771-2.619-3.21,1.441-3.223,2.885
					C494.445,381.975,495.819,384.313,496.459,386.897"/>
			</g>
			<g>
				<g>
					<path style="fill:#67192D;" d="M498.809,385.761c1.537-0.567,3.061-1.217,4.296-2.321c0.839-0.751,1.777-2.696,0.408-3.468
						c-2.688-1.513-4.925,3.086-5.473,5.02c-0.22,0.777,0.986,1.106,1.205,0.332c0.404-1.427,1.464-3.863,3.017-4.345
						c0.788-0.244,0.726,0.465,0.503,0.931c-0.241,0.506-0.826,0.908-1.268,1.213c-0.919,0.631-1.98,1.049-3.02,1.433
						C497.727,384.832,498.051,386.04,498.809,385.761L498.809,385.761z"/>
				</g>
			</g>
			<g>
				<g>
					<path style="fill:#67192D;" d="M494.944,385.326c-0.361-1.612-0.809-3.291-1.824-4.628c-0.758-1-2.13-1.718-3.218-0.782
						c-1.087,0.937-0.196,2.59,0.482,3.429c0.921,1.14,2.306,2.107,3.643,2.688c0.731,0.317,1.368-0.759,0.631-1.08
						c-1.376-0.598-3.938-2.087-3.975-3.801c-0.016-0.768,0.829-0.321,1.117-0.066c0.42,0.371,0.693,0.89,0.942,1.383
						c0.5,0.989,0.756,2.115,0.997,3.19C493.915,386.445,495.12,386.111,494.944,385.326L494.944,385.326z"/>
				</g>
			</g>
		</g>
	</g>
	<path style="fill:#67192D;" d="M396.727,88.412c0,0-47.097-11.191-99.322-12.435c-52.226-1.244-102.121,12.435-102.121,12.435
		l-14.456-35.284c0,0,67.615-14.222,114.245-14.222c46.629,0,112.845,13.29,112.845,13.29L396.727,88.412z"/>
	<g>
		<g>
			<path style="fill:#67192D;" d="M333.48,105.018c-2.241-2.436-4.676,0.975-4.092,3.312c0.585,2.63,3.604,3.604,5.845,2.825
				c4.383-1.363,3.507-7.306,1.753-10.325c-3.214-5.26-8.377-3.409-11.98,0.292c-3.994,4.188-7.598,8.767-13.247,10.715
				c-4.189,1.461-9.254,1.947-10.813-3.02c-0.486-1.754-0.778-3.604,0.39-5.162c0.683-1.072,5.65-3.994,5.455-0.585
				c-0.098,1.655-2.825,0.779-3.311,2.728c-0.39,1.559,0.779,2.143,2.24,2.045c2.435-0.098,4.286-1.947,4.676-4.188
				c0.682-5.26-5.942-7.988-9.741-4.969c-3.603,2.631-4.771,9.156-2.533,12.857c2.533,4.189,8.085,6.137,12.76,5.357
				c5.26-0.876,8.864-3.896,12.078-7.889c1.754-2.241,2.923-4.871,5.26-6.624c2.533-1.753,6.429-2.825,7.598,1.169
				c0.39,1.461,0.293,3.799-1.071,4.87c-0.974,0.682-3.02,0.974-3.117-0.779c-0.097-1.559,2.727-0.974,2.046-2.532"/>
		</g>
		<g>
			<path style="fill:#67192D;" d="M260.919,105.018c2.24-2.436,4.676,0.975,4.091,3.312c-0.584,2.63-3.604,3.604-5.845,2.825
				c-4.383-1.363-3.506-7.306-1.752-10.325c3.214-5.26,8.376-3.409,11.98,0.292c3.993,4.188,7.598,8.767,13.246,10.715
				c4.189,1.461,9.253,1.947,10.812-3.02c0.486-1.754,0.779-3.604-0.39-5.162c-0.681-1.072-5.648-3.994-5.453-0.585
				c0.098,1.655,2.824,0.779,3.311,2.728c0.39,1.559-0.779,2.143-2.241,2.045c-2.435-0.098-4.285-1.947-4.675-4.188
				c-0.682-5.26,5.942-7.988,9.74-4.969c3.602,2.631,4.77,9.156,2.531,12.857c-2.531,4.189-8.083,6.137-12.759,5.357
				c-5.26-0.876-8.863-3.896-12.078-7.889c-1.753-2.241-2.922-4.871-5.26-6.624c-2.532-1.753-6.429-2.825-7.598,1.169
				c-0.39,1.461-0.292,3.799,1.072,4.87c0.974,0.682,3.019,0.974,3.116-0.779c0.098-1.559-2.728-0.974-2.046-2.532"/>
		</g>
		<g>
			<g>
				<path style="fill:#67192D;" d="M264.345,97.646c-6.805-1.4-14.273,1.341-19.954,5.078c-0.721,0.474-2.341,1.661-1.705,2.748
					c1.078,1.84,3.755-0.201,4.905-0.68c-0.203-0.348-0.405-0.696-0.608-1.044c-1.014,1.042-5.025,4.473-3.994,6.234
					c1.319,2.25,6.818-3.853,7.508-4.62c-0.348-0.092-0.696-0.184-1.044-0.276c0.289,0.862,0.517,3.762,2.105,3.325
					c0.661-0.182,1.09-1.265,1.292-1.778c1.519-3.844,3.989-5.003,7.793-6.03c0.777-0.21,0.447-1.415-0.332-1.205
					c-2.368,0.639-4.443,1.306-6.374,2.85c-0.898,0.718-1.39,1.858-1.822,2.874c-1.131,2.658-1.049,0.85-1.457-0.368
					c-0.141-0.42-0.712-0.645-1.044-0.276c-0.678,0.754-1.39,1.466-2.123,2.167c-0.689,0.659-2.848,1.597-3.188,2.276
					c0.796-1.589,2.328-3.02,3.564-4.29c0.402-0.413,0.002-1.298-0.608-1.044c-0.272,0.112-0.544,0.226-0.816,0.34
					c-0.544,0.619-1.018,0.578-1.422-0.125c1.151-0.87,2.538-1.451,3.824-2.076c4.723-2.297,9.895-3.961,15.167-2.876
					C264.8,99.013,265.135,97.808,264.345,97.646L264.345,97.646z"/>
			</g>
		</g>
		<g>
			<g>
				<path style="fill:#67192D;" d="M259.261,99.279c-3.799,0.044-7.125,1.49-10.105,3.787c-0.629,0.484-0.008,1.571,0.631,1.079
					c2.804-2.16,5.887-3.575,9.475-3.616C260.067,100.52,260.068,99.27,259.261,99.279L259.261,99.279z"/>
			</g>
		</g>
		<g>
			<g>
				<path style="fill:#67192D;" d="M331.103,98.851c5.356-1.102,10.353,0.654,15.167,2.876c1.09,0.503,2.162,1.043,3.191,1.66
					c1.811,1.085-0.929,0.481-1.604,0.2c-0.609-0.254-1.01,0.631-0.608,1.044c1.295,1.33,2.56,2.726,3.564,4.29
					c-0.481-0.75-2.411-1.578-3.188-2.276c-0.751-0.675-1.447-1.416-2.122-2.167c-0.333-0.369-0.904-0.144-1.045,0.276
					c-0.325,0.969-0.313,3.255-1.395,0.517c-0.286-0.725-0.586-1.56-1.115-2.156c-1.957-2.204-4.363-2.966-7.143-3.716
					c-0.779-0.21-1.109,0.996-0.332,1.205c3.804,1.027,6.274,2.186,7.793,6.03c0.202,0.514,0.631,1.596,1.292,1.778
					c1.589,0.437,1.816-2.463,2.105-3.325c-0.348,0.092-0.696,0.184-1.045,0.276c0.902,1.003,5.623,6.534,7.411,4.747
					c1.471-1.471-3.06-5.502-3.896-6.361c-0.203,0.348-0.406,0.696-0.608,1.044c1.585,0.661,3.23,2.177,4.807,0.806
					c0.821-0.714-0.485-2.027-0.978-2.399c-5.531-4.18-13.712-6.968-20.583-5.554C329.982,97.808,330.317,99.013,331.103,98.851
					L331.103,98.851z"/>
			</g>
		</g>
		<g>
			<g>
				<path style="fill:#67192D;" d="M335.855,100.529c3.588,0.041,6.67,1.456,9.474,3.616c0.639,0.492,1.26-0.595,0.631-1.079
					c-2.98-2.297-6.306-3.743-10.104-3.787C335.049,99.27,335.05,100.52,335.855,100.529L335.855,100.529z"/>
			</g>
		</g>
		<g>
			<g>
				<path style="fill:#67192D;" d="M296.817,98.742c0.898-2.954,3.167-7.645,1.184-10.563c-1.77-2.62-3.209,1.441-3.222,2.885
					C294.805,93.82,296.178,96.158,296.817,98.742"/>
			</g>
			<g>
				<g>
					<path style="fill:#67192D;" d="M299.167,97.606c1.537-0.567,3.061-1.216,4.295-2.321c0.839-0.751,1.776-2.697,0.408-3.467
						c-2.688-1.513-4.925,3.085-5.472,5.02c-0.22,0.777,0.986,1.106,1.205,0.332c0.403-1.427,1.463-3.863,3.016-4.345
						c0.788-0.244,0.726,0.465,0.503,0.931c-0.241,0.505-0.825,0.908-1.269,1.212c-0.918,0.631-1.979,1.049-3.018,1.433
						C298.085,96.678,298.409,97.886,299.167,97.606L299.167,97.606z"/>
				</g>
			</g>
			<g>
				<g>
					<path style="fill:#67192D;" d="M295.303,97.172c-0.36-1.613-0.81-3.291-1.823-4.628c-0.758-1-2.129-1.718-3.216-0.782
						c-1.087,0.936-0.197,2.59,0.48,3.429c0.921,1.139,2.305,2.105,3.641,2.687c0.731,0.318,1.369-0.758,0.631-1.079
						c-1.376-0.599-3.937-2.088-3.973-3.801c-0.016-0.768,0.829-0.322,1.116-0.067c0.42,0.372,0.693,0.891,0.942,1.383
						c0.5,0.99,0.756,2.115,0.996,3.19C294.274,98.29,295.478,97.957,295.303,97.172L295.303,97.172z"/>
				</g>
			</g>
		</g>
	</g>
	<rect x="214.508" y="128.32" style="fill:none;" width="163.713" height="12.451"/>
	<text transform="matrix(1 0 0 1 247.5605 138.2539)" style="fill:#67192D; font-family:'SourceSerifPro-Light'; font-size:14px;">OF ACHIVEMENT</text>
	<g>
		<rect x="163.652" y="160.951" style="fill:none;" width="266.096" height="7.839"/>
		<text transform="matrix(1 0 0 1 220.4736 166.6289)" style="fill:#67192D; font-family:'SourceSerifPro-Bold'; font-size:8px;">THIS CERTIFICATE IS PROUDLY PRESENTED TO</text>
	</g>
	<rect x="148.98" y="191.522" style="fill:none;" width="295.307" height="26.742"/>
	<text transform="matrix(1 0 0 1 180.9375 214.7949)" style="fill:#380415; font-family:'GreatVibes-Regular'; font-size:37px;">Name &amp; Surname</text>
	<g>
		<rect x="213.203" y="247.854" style="fill:none;" width="165.098" height="15.219"/>
		<text transform="matrix(1 0 0 1 228.4668 259.9297)" style="fill:#67192D; font-family:'SourceSerifPro-Bold'; font-size:17px;">Lorem ipsum dolor</text>
	</g>
	<g>
		<rect x="108.17" y="274.955" style="fill:none;" width="386.543" height="51.82"/>
		<text transform="matrix(1 0 0 1 117.689 282.7568)"><tspan x="0" y="0" style="fill:#67192D; font-family:'SourceSerifPro-Light'; font-size:11px;">Vivamus urna risus, sodales quis commodo at, eleifend non augue. Fusce ultrices </tspan><tspan x="3.058" y="13.2" style="fill:#67192D; font-family:'SourceSerifPro-Light'; font-size:11px;">tempus eros, ut laoreet diam dictum in. Proin cursus laoreet sem, ut scelerisque </tspan><tspan x="141.728" y="26.4" style="fill:#67192D; font-family:'SourceSerifPro-Light'; font-size:11px;">quam rutrum non.</tspan></text>
	</g>
	<path id="SVGID_x5F_1_x5F_" style="fill:none;" d="M196,78.489c0,0,85.5-27.5,196,0.5"/>
	<text>	<textPath  xlink:href="#SVGID_x5F_1_x5F_" startOffset="0.098%">
<tspan  style="fill:#FFFFFF; font-family:'SourceSerifPro-Regular'; font-size:27px;">CERTIFICATE</tspan>	</textPath>
</text>
	<g>
		<g>
			<g>
				<path style="fill:#67192D;" d="M389.355,162.298c5.955-5.042,11.587-0.309,17.042,2.488c3.416,1.752,7.092,2.032,10.793,1.218
					c0.787-0.173,0.453-1.378-0.332-1.205c-7.202,1.584-11.445-2.886-17.582-5.268c-3.8-1.475-7.771-0.686-10.806,1.884
					C387.855,161.936,388.744,162.815,389.355,162.298L389.355,162.298z"/>
			</g>
		</g>
		<g>
			<g>
				<path style="fill:#67192D;" d="M388.646,165.473c3.512,1.644,6.869,1.239,10.508,0.1c2.004-0.627,3.852-1.726,5.658-2.763
					c3.818-2.192,7.647-2.549,11.888-1.525c0.783,0.189,1.115-1.016,0.332-1.205c-3.805-0.919-6.436-1.392-10.086,0.154
					c-5.752,2.436-10.973,7.293-17.669,4.159C388.552,164.054,387.917,165.132,388.646,165.473L388.646,165.473z"/>
			</g>
		</g>
	</g>
	<g>
		<g>
			<g>
				<path style="fill:#67192D;" d="M177.354,162.298c5.955-5.042,11.587-0.309,17.042,2.488c3.417,1.752,7.092,2.032,10.793,1.218
					c0.787-0.173,0.454-1.378-0.332-1.205c-7.202,1.584-11.445-2.886-17.582-5.268c-3.799-1.475-7.77-0.686-10.805,1.884
					C175.854,161.936,176.744,162.815,177.354,162.298L177.354,162.298z"/>
			</g>
		</g>
		<g>
			<g>
				<path style="fill:#67192D;" d="M176.646,165.473c3.512,1.644,6.869,1.239,10.508,0.1c2.004-0.627,3.852-1.726,5.658-2.763
					c3.818-2.192,7.647-2.549,11.888-1.525c0.783,0.189,1.116-1.016,0.332-1.205c-3.805-0.919-6.436-1.392-10.086,0.154
					c-5.752,2.436-10.973,7.293-17.669,4.159C176.551,164.054,175.916,165.132,176.646,165.473L176.646,165.473z"/>
			</g>
		</g>
	</g>
	<g>
		<g>
			<path style="fill:#67192D;" d="M146.998,230.579c0.167,0,0.334,0,0.502,0c1.612,0,1.612-2.5,0-2.5c-0.168,0-0.335,0-0.502,0
				C145.386,228.079,145.386,230.579,146.998,230.579L146.998,230.579z"/>
		</g>
	</g>
	<g>
		<g>
			<path style="fill:#67192D;" d="M156.498,230.579c0.167,0,0.334,0,0.502,0c1.612,0,1.612-2.5,0-2.5c-0.168,0-0.335,0-0.502,0
				C154.886,228.079,154.886,230.579,156.498,230.579L156.498,230.579z"/>
		</g>
	</g>
	<g>
		<g>
			<path style="fill:#67192D;" d="M165.998,230.579c0.167,0,0.334,0,0.502,0c1.612,0,1.612-2.5,0-2.5c-0.168,0-0.335,0-0.502,0
				C164.386,228.079,164.386,230.579,165.998,230.579L165.998,230.579z"/>
		</g>
	</g>
	<g>
		<g>
			<path style="fill:#67192D;" d="M175.498,230.579c0.167,0,0.334,0,0.502,0c1.612,0,1.612-2.5,0-2.5c-0.168,0-0.335,0-0.502,0
				C173.886,228.079,173.886,230.579,175.498,230.579L175.498,230.579z"/>
		</g>
	</g>
	<g>
		<g>
			<path style="fill:#67192D;" d="M184.998,230.579c0.167,0,0.334,0,0.502,0c1.612,0,1.612-2.5,0-2.5c-0.168,0-0.335,0-0.502,0
				C183.386,228.079,183.386,230.579,184.998,230.579L184.998,230.579z"/>
		</g>
	</g>
	<g>
		<g>
			<path style="fill:#67192D;" d="M194.498,230.579c0.167,0,0.334,0,0.502,0c1.612,0,1.612-2.5,0-2.5c-0.168,0-0.335,0-0.502,0
				C192.886,228.079,192.886,230.579,194.498,230.579L194.498,230.579z"/>
		</g>
	</g>
	<g>
		<g>
			<path style="fill:#67192D;" d="M203.998,230.579c0.167,0,0.334,0,0.502,0c1.612,0,1.612-2.5,0-2.5c-0.168,0-0.335,0-0.502,0
				C202.386,228.079,202.386,230.579,203.998,230.579L203.998,230.579z"/>
		</g>
	</g>
	<g>
		<g>
			<path style="fill:#67192D;" d="M213.498,230.579c0.167,0,0.334,0,0.502,0c1.612,0,1.612-2.5,0-2.5c-0.168,0-0.335,0-0.502,0
				C211.886,228.079,211.886,230.579,213.498,230.579L213.498,230.579z"/>
		</g>
	</g>
	<g>
		<g>
			<path style="fill:#67192D;" d="M222.998,230.579c0.167,0,0.334,0,0.502,0c1.612,0,1.612-2.5,0-2.5c-0.168,0-0.335,0-0.502,0
				C221.386,228.079,221.386,230.579,222.998,230.579L222.998,230.579z"/>
		</g>
	</g>
	<g>
		<g>
			<path style="fill:#67192D;" d="M232.498,230.579c0.167,0,0.334,0,0.502,0c1.612,0,1.612-2.5,0-2.5c-0.168,0-0.335,0-0.502,0
				C230.886,228.079,230.886,230.579,232.498,230.579L232.498,230.579z"/>
		</g>
	</g>
	<g>
		<g>
			<path style="fill:#67192D;" d="M241.998,230.579c0.167,0,0.334,0,0.502,0c1.612,0,1.612-2.5,0-2.5c-0.168,0-0.335,0-0.502,0
				C240.386,228.079,240.386,230.579,241.998,230.579L241.998,230.579z"/>
		</g>
	</g>
	<g>
		<g>
			<path style="fill:#67192D;" d="M251.498,230.579c0.167,0,0.334,0,0.502,0c1.612,0,1.612-2.5,0-2.5c-0.168,0-0.335,0-0.502,0
				C249.886,228.079,249.886,230.579,251.498,230.579L251.498,230.579z"/>
		</g>
	</g>
	<g>
		<g>
			<path style="fill:#67192D;" d="M260.998,230.579c0.168,0,0.335,0,0.502,0c1.612,0,1.612-2.5,0-2.5c-0.168,0-0.335,0-0.502,0
				C259.386,228.079,259.386,230.579,260.998,230.579L260.998,230.579z"/>
		</g>
	</g>
	<g>
		<g>
			<path style="fill:#67192D;" d="M270.498,230.579c0.168,0,0.335,0,0.502,0c1.612,0,1.612-2.5,0-2.5c-0.168,0-0.335,0-0.502,0
				C268.886,228.079,268.886,230.579,270.498,230.579L270.498,230.579z"/>
		</g>
	</g>
	<g>
		<g>
			<path style="fill:#67192D;" d="M279.998,230.579c0.168,0,0.335,0,0.502,0c1.612,0,1.612-2.5,0-2.5c-0.168,0-0.335,0-0.502,0
				C278.386,228.079,278.386,230.579,279.998,230.579L279.998,230.579z"/>
		</g>
	</g>
	<g>
		<g>
			<path style="fill:#67192D;" d="M289.498,230.579c0.168,0,0.335,0,0.502,0c1.612,0,1.612-2.5,0-2.5c-0.168,0-0.335,0-0.502,0
				C287.886,228.079,287.886,230.579,289.498,230.579L289.498,230.579z"/>
		</g>
	</g>
	<g>
		<g>
			<path style="fill:#67192D;" d="M298.998,230.579c0.167,0,0.335,0,0.502,0c1.612,0,1.612-2.5,0-2.5c-0.167,0-0.335,0-0.502,0
				C297.386,228.079,297.386,230.579,298.998,230.579L298.998,230.579z"/>
		</g>
	</g>
	<g>
		<g>
			<path style="fill:#67192D;" d="M308.498,230.579c0.167,0,0.335,0,0.502,0c1.612,0,1.612-2.5,0-2.5c-0.167,0-0.335,0-0.502,0
				C306.886,228.079,306.886,230.579,308.498,230.579L308.498,230.579z"/>
		</g>
	</g>
	<g>
		<g>
			<path style="fill:#67192D;" d="M317.998,230.579c0.167,0,0.335,0,0.502,0c1.612,0,1.612-2.5,0-2.5c-0.167,0-0.335,0-0.502,0
				C316.386,228.079,316.386,230.579,317.998,230.579L317.998,230.579z"/>
		</g>
	</g>
	<g>
		<g>
			<path style="fill:#67192D;" d="M327.498,230.579c0.167,0,0.335,0,0.502,0c1.612,0,1.612-2.5,0-2.5c-0.167,0-0.335,0-0.502,0
				C325.886,228.079,325.886,230.579,327.498,230.579L327.498,230.579z"/>
		</g>
	</g>
	<g>
		<g>
			<path style="fill:#67192D;" d="M336.998,230.579c0.167,0,0.335,0,0.502,0c1.612,0,1.612-2.5,0-2.5c-0.167,0-0.335,0-0.502,0
				C335.386,228.079,335.386,230.579,336.998,230.579L336.998,230.579z"/>
		</g>
	</g>
	<g>
		<g>
			<path style="fill:#67192D;" d="M346.498,230.579c0.167,0,0.335,0,0.502,0c1.612,0,1.612-2.5,0-2.5c-0.167,0-0.335,0-0.502,0
				C344.886,228.079,344.886,230.579,346.498,230.579L346.498,230.579z"/>
		</g>
	</g>
	<g>
		<g>
			<path style="fill:#67192D;" d="M355.998,230.579c0.167,0,0.335,0,0.502,0c1.612,0,1.612-2.5,0-2.5c-0.167,0-0.335,0-0.502,0
				C354.386,228.079,354.386,230.579,355.998,230.579L355.998,230.579z"/>
		</g>
	</g>
	<g>
		<g>
			<path style="fill:#67192D;" d="M365.498,230.579c0.167,0,0.335,0,0.502,0c1.612,0,1.612-2.5,0-2.5c-0.167,0-0.335,0-0.502,0
				C363.886,228.079,363.886,230.579,365.498,230.579L365.498,230.579z"/>
		</g>
	</g>
	<g>
		<g>
			<path style="fill:#67192D;" d="M374.998,230.579c0.167,0,0.335,0,0.502,0c1.612,0,1.612-2.5,0-2.5c-0.167,0-0.335,0-0.502,0
				C373.386,228.079,373.386,230.579,374.998,230.579L374.998,230.579z"/>
		</g>
	</g>
	<g>
		<g>
			<path style="fill:#67192D;" d="M384.498,230.579c0.167,0,0.335,0,0.502,0c1.612,0,1.612-2.5,0-2.5c-0.167,0-0.335,0-0.502,0
				C382.886,228.079,382.886,230.579,384.498,230.579L384.498,230.579z"/>
		</g>
	</g>
	<g>
		<g>
			<path style="fill:#67192D;" d="M393.998,230.579c0.167,0,0.335,0,0.502,0c1.612,0,1.612-2.5,0-2.5c-0.167,0-0.335,0-0.502,0
				C392.386,228.079,392.386,230.579,393.998,230.579L393.998,230.579z"/>
		</g>
	</g>
	<g>
		<g>
			<path style="fill:#67192D;" d="M403.498,230.579c0.167,0,0.335,0,0.502,0c1.612,0,1.612-2.5,0-2.5c-0.167,0-0.335,0-0.502,0
				C401.886,228.079,401.886,230.579,403.498,230.579L403.498,230.579z"/>
		</g>
	</g>
	<g>
		<g>
			<path style="fill:#67192D;" d="M412.998,230.579c0.167,0,0.335,0,0.502,0c1.612,0,1.612-2.5,0-2.5c-0.167,0-0.335,0-0.502,0
				C411.386,228.079,411.386,230.579,412.998,230.579L412.998,230.579z"/>
		</g>
	</g>
	<g>
		<g>
			<path style="fill:#67192D;" d="M422.498,230.579c0.167,0,0.335,0,0.502,0c1.612,0,1.612-2.5,0-2.5c-0.167,0-0.335,0-0.502,0
				C420.886,228.079,420.886,230.579,422.498,230.579L422.498,230.579z"/>
		</g>
	</g>
	<g>
		<g>
			<path style="fill:#67192D;" d="M431.998,230.579c0.167,0,0.335,0,0.502,0c1.612,0,1.612-2.5,0-2.5c-0.167,0-0.335,0-0.502,0
				C430.386,228.079,430.386,230.579,431.998,230.579L431.998,230.579z"/>
		</g>
	</g>
	<g>
		<g>
			<path style="fill:#67192D;" d="M441.498,230.579c0.167,0,0.335,0,0.502,0c1.612,0,1.612-2.5,0-2.5c-0.167,0-0.335,0-0.502,0
				C439.886,228.079,439.886,230.579,441.498,230.579L441.498,230.579z"/>
		</g>
	</g>
	<g>
		<g>
			<path style="fill:#67192D;" d="M450.998,230.579c0.167,0,0.335,0,0.502,0c1.612,0,1.612-2.5,0-2.5c-0.167,0-0.335,0-0.502,0
				C449.386,228.079,449.386,230.579,450.998,230.579L450.998,230.579z"/>
		</g>
	</g>
	<line style="fill:none;stroke:#67192D;stroke-miterlimit:10;" x1="119.666" y1="356.327" x2="248.333" y2="356.327"/>
	<line style="fill:none;stroke:#67192D;stroke-miterlimit:10;" x1="357.666" y1="356.327" x2="486.332" y2="356.327"/>
	<rect x="119.001" y="359.666" style="fill:none;" width="128.666" height="14"/>
	<text transform="matrix(1 0 0 1 170.8657 367.4756)" style="fill:#67192D; font-family:'SourceSerifPro-Bold'; font-size:11px;">DATE</text>
	<rect x="358.334" y="359.666" style="fill:none;" width="128.666" height="14"/>
	<text transform="matrix(1 0 0 1 396.1465 367.4756)" style="fill:#67192D; font-family:'SourceSerifPro-Bold'; font-size:11px;">SIGNATURE</text>
	<path style="fill:#67192D;" d="M332.336,356.665c0,15.28-12.388,27.667-27.668,27.667c-15.28,0-27.667-12.387-27.667-27.667
		c0-15.28,12.387-27.667,27.667-27.667C319.948,328.998,332.336,341.385,332.336,356.665z"/>
	<rect x="261.75" y="350.833" style="fill:none;" width="88.5" height="20.458"/>
	<text transform="matrix(1 0 0 1 288.3359 356.5127)"><tspan x="0" y="0" style="fill:#FFFFFF; font-family:'SourceSerifPro-Bold'; font-size:8px;">COMPANY </tspan><tspan x="7.4" y="9.601" style="fill:#FFFFFF; font-family:'SourceSerifPro-Bold'; font-size:8px;">NAME</tspan></text>
</g>
</svg>
