<svg xmlns="http://www.w3.org/2000/svg" xmlns:xlink="http://www.w3.org/1999/xlink" width="25.189" height="25.189" viewBox="0 0 25.189 25.189"><defs><style>.a{fill:#303c42;}.b{fill:#00acc1;}.c{fill:#e6e6e6;}.d{opacity:0.2;}.e{fill:url(#a);}.f{fill:url(#b);}</style><linearGradient id="a" x1="-0.363" y1="0.21" x2="0.972" y2="0.984" gradientUnits="objectBoundingBox"><stop offset="0" stop-opacity="0.102"/><stop offset="1" stop-opacity="0"/></linearGradient><linearGradient id="b" x1="-0.077" y1="0.231" x2="1.077" y2="0.769" gradientUnits="objectBoundingBox"><stop offset="0" stop-color="#fff" stop-opacity="0.2"/><stop offset="1" stop-color="#fff" stop-opacity="0"/></linearGradient></defs><path class="a" d="M23.09,4.2H12.832L11.517.355A.525.525,0,0,0,11.02,0H2.1A2.1,2.1,0,0,0,0,2.1V18.892a2.1,2.1,0,0,0,2.1,2.1H12.231l1.447,3.858a.525.525,0,0,0,.491.34H23.09a2.1,2.1,0,0,0,2.1-2.1V6.3A2.1,2.1,0,0,0,23.09,4.2Z"/><path class="b" d="M1,18.843V2.05A1.051,1.051,0,0,1,2.05,1H10.6l6.463,18.892H2.05A1.051,1.051,0,0,1,1,18.843Z" transform="translate(0.05 0.05)"/><path class="c" d="M19.637,11a11.82,11.82,0,0,1-1.957,3.456A7,7,0,0,1,16.555,12.9a.525.525,0,1,0-.973.395,8.39,8.39,0,0,0,1.4,1.959,9.345,9.345,0,0,1-.685.65L14.621,11Z" transform="translate(0.724 0.545)"/><path class="b" d="M12.722,20h3.334l-2.334,2.667Z" transform="translate(0.63 0.991)"/><path class="d" d="M12.722,20h3.334l-2.334,2.667Z" transform="translate(0.63 0.991)"/><path class="c" d="M23.517,22.843a1.051,1.051,0,0,1-1.05,1.05H14.7l2.912-3.328-.007-.007c.012-.013.029-.019.039-.034a.524.524,0,0,0,.07-.475l-.954-2.788a9.824,9.824,0,0,0,1.028-.939c1.008,1.063,2.024,2,2.224,2.184a.525.525,0,0,0,.709-.774c-.491-.45-1.4-1.315-2.234-2.2A12.063,12.063,0,0,0,20.815,11.3h1.128a.525.525,0,0,0,0-1.05H18.269V9.723a.525.525,0,1,0-1.05,0v.525H14.6a.518.518,0,0,0-.216.049L12.568,5h9.9a1.051,1.051,0,0,1,1.05,1.05Z" transform="translate(0.623 0.248)"/><path class="e" d="M15.973,12.91a.525.525,0,0,1,.684.289,7,7,0,0,0,1.125,1.554A11.82,11.82,0,0,0,19.739,11.3H14.722L16.4,16.2a9.345,9.345,0,0,0,.685-.65,8.39,8.39,0,0,1-1.4-1.959A.525.525,0,0,1,15.973,12.91ZM17.22,9.723a.487.487,0,0,1,.012-.059L12.568,5l1.812,5.3a.518.518,0,0,1,.216-.049H17.22Zm3.068,3a14.7,14.7,0,0,1-1.8,2.812c.838.886,1.743,1.751,2.234,2.2a.525.525,0,1,1-.709.774c-.2-.182-1.216-1.121-2.224-2.184a9.824,9.824,0,0,1-1.028.939l.954,2.788a.524.524,0,0,1-.07.475c-.01.014-.028.021-.039.034l.007.007L14.7,23.892h7.765a1.051,1.051,0,0,0,1.05-1.05V15.949Z" transform="translate(0.623 0.248)"/><path class="a" d="M11.921,10.2h-4.2a.525.525,0,0,0,0,1.05h3.636A3.674,3.674,0,1,1,10.11,7.931a.525.525,0,0,0,.683-.8,4.723,4.723,0,1,0,1.653,3.589A.524.524,0,0,0,11.921,10.2Z" transform="translate(0.149 0.297)"/><path class="f" d="M23.09,4.2H12.832L11.517.355A.525.525,0,0,0,11.02,0H2.1A2.1,2.1,0,0,0,0,2.1V18.892a2.1,2.1,0,0,0,2.1,2.1H12.231l1.447,3.858a.525.525,0,0,0,.491.34H23.09a2.1,2.1,0,0,0,2.1-2.1V6.3A2.1,2.1,0,0,0,23.09,4.2Z"/></svg>